<?xml version="1.0" encoding="utf-8"?>
<!--Generator: Adobe Illustrator 22.1.0, SVG Export Plug-In . SVG Version: 6.00 Build 0)-->
<svg xmlns="http://www.w3.org/2000/svg" xmlns:xlink="http://www.w3.org/1999/xlink" x="0px" y="0px" style="enable-background:new 0 0 345.5 236.7;" version="1.1" viewBox="0 0 345.5 236.7" xml:space="preserve">
    <style type="text/css">
        .st0{fill-rule:evenodd;clip-rule:evenodd;fill:#FFFFFF;} .st1{fill:#FFFFFF;}
    </style>
    <g id="Layer_1">
        <path d="M45.5,210h-7l-0.8,1.9c-0.3,0.6-0.4,1.2-0.4,1.6c0,0.6,0.2,1,0.7,1.2c0.3,0.2,0.9,0.3,1.9,0.4v0.5h-6.6v-0.5
		c0.7-0.1,1.3-0.4,1.8-0.9c0.5-0.5,1-1.5,1.7-3l7.1-15.8h0.3l7.2,16.3c0.7,1.5,1.2,2.5,1.7,2.9c0.3,0.3,0.8,0.5,1.4,0.5v0.5h-9.6
		v-0.5h0.4c0.8,0,1.3-0.1,1.6-0.3c0.2-0.2,0.3-0.4,0.3-0.7c0-0.2,0-0.4-0.1-0.5c0-0.1-0.2-0.5-0.4-1.1L45.5,210L45.5,210z M45,208.9
		l-3-6.8l-3,6.8H45L45,208.9z" class="st0"/>
        <path d="M66.5,202v10.7c0,1,0.1,1.7,0.3,2c0.2,0.3,0.6,0.4,1.2,0.5v0.5h-5.6v-1.8c-0.7,0.8-1.3,1.4-2,1.7
		c-0.7,0.4-1.4,0.5-2.2,0.5c-0.8,0-1.5-0.2-2.1-0.7c-0.6-0.5-1-1-1.2-1.7c-0.2-0.6-0.3-1.7-0.3-3.3v-5.4c0-1-0.1-1.7-0.3-1.9
		c-0.2-0.3-0.6-0.4-1.2-0.5V202h5.6v9.4c0,1,0,1.6,0.1,1.9c0.1,0.3,0.2,0.5,0.4,0.6c0.2,0.1,0.4,0.2,0.7,0.2c0.4,0,0.7-0.1,1-0.3
		c0.4-0.3,0.9-0.8,1.4-1.5v-7.3c0-1-0.1-1.7-0.3-1.9c-0.2-0.3-0.6-0.4-1.2-0.5V202H66.5L66.5,202z" class="st1"/>
        <path d="M77.6,201.6l0.2,4.7h-0.5c-0.6-1.4-1.2-2.3-1.9-2.8c-0.6-0.5-1.3-0.8-1.9-0.8c-0.4,0-0.7,0.1-1,0.4
		c-0.3,0.3-0.4,0.6-0.4,0.9c0,0.3,0.1,0.5,0.3,0.8c0.3,0.4,1.2,1.1,2.6,2.1c1.4,1,2.4,1.8,2.8,2.5c0.5,0.7,0.7,1.4,0.7,2.3
		c0,0.8-0.2,1.5-0.6,2.2c-0.4,0.7-0.9,1.3-1.6,1.7c-0.7,0.4-1.5,0.6-2.3,0.6c-0.7,0-1.5-0.2-2.6-0.6c-0.3-0.1-0.5-0.2-0.6-0.2
		c-0.3,0-0.6,0.2-0.8,0.7h-0.5l-0.2-4.9h0.5c0.4,1.3,1,2.3,1.8,2.9c0.8,0.6,1.5,1,2.2,1c0.5,0,0.8-0.1,1.1-0.4
		c0.3-0.3,0.5-0.6,0.5-1.1c0-0.5-0.1-0.9-0.4-1.2c-0.3-0.3-0.9-0.9-2-1.6c-1.5-1-2.5-1.8-2.9-2.4c-0.6-0.8-1-1.7-1-2.6
		c0-1.1,0.4-2,1.1-2.9c0.7-0.9,1.8-1.3,3.2-1.3c0.7,0,1.5,0.2,2.2,0.5c0.3,0.1,0.5,0.2,0.6,0.2c0.2,0,0.3,0,0.4-0.1
		c0.1-0.1,0.3-0.3,0.5-0.6H77.6L77.6,201.6z" class="st1"/>
        <path d="M84.8,196.9v5h3.2v1.4h-3.2v8.4c0,0.8,0,1.3,0.1,1.5c0.1,0.2,0.2,0.4,0.4,0.6c0.2,0.1,0.4,0.2,0.5,0.2
		c0.6,0,1.2-0.5,1.8-1.4l0.4,0.3c-0.8,1.9-2.1,2.8-3.8,2.8c-0.9,0-1.6-0.2-2.2-0.7c-0.6-0.5-1-1-1.1-1.6c-0.1-0.3-0.1-1.2-0.1-2.7
		v-7.4H79v-0.5c1.2-0.9,2.3-1.8,3.1-2.7c0.9-1,1.6-2,2.3-3.2H84.8L84.8,196.9z" class="st1"/>
        <path d="M94.8,202v3.1c0.9-1.4,1.7-2.4,2.4-2.8c0.7-0.5,1.3-0.7,2-0.7c0.5,0,1,0.2,1.3,0.5c0.3,0.3,0.5,0.8,0.5,1.4
		c0,0.7-0.2,1.2-0.5,1.5c-0.3,0.4-0.7,0.5-1.1,0.5c-0.5,0-1-0.2-1.3-0.5c-0.4-0.3-0.6-0.5-0.7-0.6c-0.1-0.1-0.2-0.1-0.3-0.1
		c-0.3,0-0.6,0.1-0.8,0.3c-0.4,0.3-0.7,0.8-0.9,1.4c-0.3,0.9-0.5,2-0.5,3.1v3.1l0,0.8c0,0.6,0,0.9,0.1,1.1c0.1,0.3,0.3,0.5,0.5,0.6
		c0.2,0.1,0.6,0.2,1.2,0.2v0.5h-7.4v-0.5c0.6,0,1-0.2,1.2-0.5c0.2-0.3,0.3-1,0.3-2.2v-7.6c0-0.8,0-1.3-0.1-1.5
		c-0.1-0.3-0.2-0.5-0.4-0.6c-0.2-0.1-0.5-0.2-1-0.3V202H94.8L94.8,202z" class="st1"/>
        <path d="M108.5,213.6c-1.7,1.5-3.2,2.2-4.5,2.2c-0.8,0-1.4-0.3-1.9-0.8c-0.5-0.5-0.8-1.2-0.8-1.9c0-1,0.4-2,1.3-2.8
		c0.9-0.8,2.9-2,5.9-3.3v-1.4c0-1-0.1-1.7-0.2-1.9c-0.1-0.3-0.3-0.5-0.6-0.7c-0.3-0.2-0.7-0.3-1.1-0.3c-0.6,0-1.2,0.1-1.6,0.4
		c-0.3,0.2-0.4,0.4-0.4,0.6c0,0.2,0.1,0.5,0.4,0.8c0.4,0.4,0.6,0.8,0.6,1.2c0,0.5-0.2,0.9-0.5,1.2c-0.4,0.3-0.8,0.5-1.4,0.5
		c-0.6,0-1.1-0.2-1.6-0.6c-0.4-0.4-0.6-0.8-0.6-1.3c0-0.7,0.3-1.4,0.8-2c0.6-0.6,1.3-1.1,2.3-1.5c1-0.3,2-0.5,3.1-0.5
		c1.3,0,2.3,0.3,3.1,0.8c0.8,0.5,1.3,1.1,1.5,1.8c0.1,0.4,0.2,1.4,0.2,2.8v5.3c0,0.6,0,1,0.1,1.2c0,0.2,0.1,0.3,0.2,0.4
		c0.1,0.1,0.2,0.1,0.3,0.1c0.3,0,0.5-0.2,0.8-0.5l0.4,0.4c-0.5,0.7-1,1.2-1.5,1.6c-0.5,0.3-1.1,0.5-1.8,0.5c-0.8,0-1.4-0.2-1.8-0.5
		C108.8,214.9,108.6,214.4,108.5,213.6L108.5,213.6z M108.5,212.6V208c-1.2,0.7-2.1,1.4-2.6,2.2c-0.4,0.5-0.6,1.1-0.6,1.6
		c0,0.4,0.2,0.8,0.5,1.2c0.2,0.3,0.6,0.4,1,0.4C107.2,213.4,107.8,213.1,108.5,212.6L108.5,212.6z" class="st0"/>
        <path d="M120.4,195.8v17c0,1,0.1,1.6,0.3,1.9c0.2,0.3,0.7,0.4,1.3,0.5v0.5h-7.4v-0.5c0.6,0,1.1-0.2,1.3-0.5
		c0.2-0.2,0.3-0.8,0.3-1.8v-14.2c0-1-0.1-1.6-0.3-1.8c-0.2-0.3-0.7-0.4-1.3-0.5v-0.5H120.4L120.4,195.8z" class="st1"/>
        <path d="M126.6,195.3c0.6,0,1.2,0.2,1.6,0.7c0.4,0.4,0.7,1,0.7,1.6c0,0.6-0.2,1.2-0.7,1.6c-0.4,0.4-1,0.7-1.6,0.7
		c-0.6,0-1.2-0.2-1.6-0.7c-0.4-0.4-0.7-1-0.7-1.6c0-0.6,0.2-1.2,0.7-1.6C125.5,195.5,126,195.3,126.6,195.3L126.6,195.3z M128.7,202
		v10.8c0,1,0.1,1.6,0.3,1.9c0.2,0.3,0.7,0.4,1.3,0.5v0.5h-7.4v-0.5c0.6,0,1.1-0.2,1.3-0.5c0.2-0.2,0.3-0.8,0.3-1.8v-8
		c0-1-0.1-1.6-0.3-1.8c-0.2-0.3-0.7-0.4-1.3-0.5V202H128.7L128.7,202z" class="st0"/>
        <path d="M138.3,213.6c-1.7,1.5-3.2,2.2-4.5,2.2c-0.8,0-1.4-0.3-1.9-0.8c-0.5-0.5-0.8-1.2-0.8-1.9c0-1,0.4-2,1.3-2.8
		c0.9-0.8,2.9-2,5.9-3.3v-1.4c0-1-0.1-1.7-0.2-1.9c-0.1-0.3-0.3-0.5-0.6-0.7c-0.3-0.2-0.7-0.3-1.1-0.3c-0.6,0-1.2,0.1-1.6,0.4
		c-0.3,0.2-0.4,0.4-0.4,0.6c0,0.2,0.1,0.5,0.4,0.8c0.4,0.4,0.6,0.8,0.6,1.2c0,0.5-0.2,0.9-0.5,1.2c-0.4,0.3-0.8,0.5-1.4,0.5
		c-0.6,0-1.1-0.2-1.6-0.6c-0.4-0.4-0.6-0.8-0.6-1.3c0-0.7,0.3-1.4,0.8-2c0.6-0.6,1.3-1.1,2.3-1.5c1-0.3,2-0.5,3.1-0.5
		c1.3,0,2.3,0.3,3.1,0.8c0.8,0.5,1.3,1.1,1.5,1.8c0.1,0.4,0.2,1.4,0.2,2.8v5.3c0,0.6,0,1,0.1,1.2c0,0.2,0.1,0.3,0.2,0.4
		c0.1,0.1,0.2,0.1,0.3,0.1c0.3,0,0.5-0.2,0.8-0.5l0.4,0.4c-0.5,0.7-1,1.2-1.5,1.6c-0.5,0.3-1.1,0.5-1.8,0.5c-0.8,0-1.4-0.2-1.8-0.5
		C138.7,214.9,138.4,214.4,138.3,213.6L138.3,213.6z M138.3,212.6V208c-1.2,0.7-2.1,1.4-2.6,2.2c-0.4,0.5-0.6,1.1-0.6,1.6
		c0,0.4,0.2,0.8,0.5,1.2c0.2,0.3,0.6,0.4,1,0.4C137.1,213.4,137.7,213.1,138.3,212.6L138.3,212.6z" class="st0"/>
        <path d="M150.1,202v1.8c0.7-0.8,1.4-1.3,2-1.7c0.6-0.4,1.3-0.5,2.1-0.5c0.9,0,1.6,0.2,2.2,0.7c0.6,0.5,1,1.1,1.2,1.8
		c0.2,0.6,0.2,1.6,0.2,3.2v5.3c0,1.1,0.1,1.7,0.3,2c0.2,0.3,0.6,0.4,1.2,0.5v0.5h-6.9v-0.5c0.5-0.1,0.9-0.3,1.1-0.6
		c0.2-0.2,0.2-0.8,0.2-1.8v-6.1c0-1.1,0-1.8-0.1-2.1c-0.1-0.3-0.2-0.5-0.5-0.7c-0.2-0.2-0.4-0.2-0.7-0.2c-0.8,0-1.6,0.6-2.3,1.8v7.3
		c0,1,0.1,1.7,0.3,1.9c0.2,0.3,0.6,0.4,1.1,0.5v0.5h-6.9v-0.5c0.6-0.1,1-0.2,1.2-0.6c0.2-0.2,0.2-0.8,0.2-1.9v-7.7
		c0-1-0.1-1.7-0.3-1.9c-0.2-0.3-0.6-0.4-1.2-0.5V202H150.1L150.1,202z" class="st1"/>
        <path d="M186.3,195.3v7h-0.5c-0.7-1.9-1.6-3.4-2.9-4.4c-1.3-1-2.7-1.5-4.3-1.5c-1.5,0-2.7,0.4-3.7,1.3
		c-1,0.8-1.7,2-2.1,3.5c-0.4,1.5-0.6,3-0.6,4.6c0,1.9,0.2,3.6,0.7,5s1.2,2.5,2.2,3.2c1,0.7,2.2,1,3.6,1c0.5,0,1,0,1.5-0.1
		c0.5-0.1,1-0.3,1.6-0.5v-4.1c0-0.8-0.1-1.3-0.2-1.5c-0.1-0.2-0.3-0.4-0.7-0.6c-0.3-0.2-0.7-0.3-1.2-0.3H179v-0.5h9.6v0.5
		c-0.7,0-1.2,0.2-1.5,0.3c-0.3,0.1-0.5,0.4-0.7,0.7c-0.1,0.2-0.1,0.6-0.1,1.4v4.1c-1.3,0.6-2.6,1-4,1.3c-1.4,0.3-2.8,0.4-4.3,0.4
		c-1.9,0-3.4-0.3-4.7-0.8c-1.2-0.5-2.3-1.2-3.3-2c-0.9-0.8-1.7-1.8-2.2-2.8c-0.7-1.3-1-2.9-1-4.5c0-3,1-5.5,3.1-7.6
		c2.1-2.1,4.7-3.1,7.9-3.1c1,0,1.9,0.1,2.7,0.2c0.4,0.1,1.1,0.3,2.1,0.7c1,0.4,1.5,0.5,1.7,0.5c0.3,0,0.5-0.1,0.8-0.3
		c0.2-0.2,0.4-0.6,0.6-1.1H186.3L186.3,195.3z" class="st1"/>
        <path d="M195.8,201.5c1.2,0,2.3,0.3,3.3,0.9c1,0.6,1.8,1.5,2.3,2.6c0.5,1.1,0.8,2.4,0.8,3.7c0,1.9-0.5,3.6-1.5,4.9
		c-1.2,1.6-2.8,2.4-4.9,2.4c-2.1,0-3.6-0.7-4.8-2.2c-1.1-1.4-1.7-3.1-1.7-5c0-2,0.6-3.7,1.7-5.1
		C192.2,202.3,193.8,201.5,195.8,201.5L195.8,201.5z M195.8,202.6c-0.5,0-0.9,0.2-1.3,0.6c-0.4,0.4-0.6,1.1-0.7,2.2
		c-0.1,1.1-0.2,2.6-0.2,4.6c0,1,0.1,2,0.2,2.9c0.1,0.7,0.3,1.2,0.7,1.6c0.4,0.4,0.8,0.5,1.2,0.5c0.4,0,0.8-0.1,1.1-0.4
		c0.4-0.3,0.6-0.8,0.8-1.4c0.2-0.9,0.3-2.8,0.3-5.6c0-1.7-0.1-2.8-0.3-3.4c-0.2-0.6-0.5-1.1-0.8-1.4
		C196.6,202.7,196.2,202.6,195.8,202.6L195.8,202.6z" class="st0"/>
        <path d="M208.7,216l-4.6-10.6c-0.6-1.3-1-2.1-1.3-2.4c-0.2-0.3-0.6-0.4-1-0.5V202h7.3v0.5c-0.5,0-0.8,0.1-0.9,0.2
		c-0.2,0.2-0.4,0.5-0.4,0.8c0,0.4,0.2,1,0.6,2l2.3,5.1l1.8-4.4c0.5-1.3,0.8-2.2,0.8-2.7c0-0.3-0.1-0.5-0.3-0.7
		c-0.2-0.2-0.6-0.3-1.2-0.3V202h4.5v0.5c-0.4,0.1-0.8,0.2-1.1,0.5c-0.3,0.3-0.7,1-1.2,2.3l-4.6,10.7H208.7L208.7,216z" class="st1"/>
        <path d="M227,208.3h-7.5c0.1,1.8,0.6,3.2,1.4,4.3c0.7,0.8,1.5,1.2,2.4,1.2c0.6,0,1.1-0.2,1.6-0.5
		c0.5-0.3,1-0.9,1.5-1.8l0.5,0.3c-0.7,1.5-1.6,2.6-2.5,3.2c-0.9,0.6-1.9,0.9-3.1,0.9c-2,0-3.6-0.8-4.6-2.3c-0.8-1.3-1.3-2.8-1.3-4.7
		c0-2.3,0.6-4.1,1.8-5.4c1.2-1.4,2.7-2,4.3-2c1.4,0,2.6,0.6,3.6,1.7C226.4,204.4,226.9,206.1,227,208.3L227,208.3z M223.4,207.3
		c0-1.6-0.1-2.6-0.3-3.2c-0.2-0.6-0.4-1-0.8-1.3c-0.2-0.2-0.5-0.3-0.8-0.3c-0.5,0-0.9,0.2-1.2,0.7c-0.6,0.9-0.9,2.1-0.9,3.6v0.5
		H223.4L223.4,207.3z" class="st0"/>
        <path d="M233.5,202v3.1c0.9-1.4,1.7-2.4,2.4-2.8c0.7-0.5,1.3-0.7,2-0.7c0.5,0,1,0.2,1.3,0.5c0.3,0.3,0.5,0.8,0.5,1.4
		c0,0.7-0.2,1.2-0.5,1.5c-0.3,0.4-0.7,0.5-1.1,0.5c-0.5,0-1-0.2-1.3-0.5c-0.4-0.3-0.6-0.5-0.7-0.6c-0.1-0.1-0.2-0.1-0.3-0.1
		c-0.3,0-0.6,0.1-0.8,0.3c-0.4,0.3-0.7,0.8-0.9,1.4c-0.3,0.9-0.5,2-0.5,3.1v3.1l0,0.8c0,0.6,0,0.9,0.1,1.1c0.1,0.3,0.3,0.5,0.5,0.6
		c0.2,0.1,0.6,0.2,1.2,0.2v0.5h-7.4v-0.5c0.6,0,1-0.2,1.2-0.5c0.2-0.3,0.3-1,0.3-2.2v-7.6c0-0.8,0-1.3-0.1-1.5
		c-0.1-0.3-0.2-0.5-0.4-0.6c-0.2-0.1-0.5-0.2-1-0.3V202H233.5L233.5,202z" class="st1"/>
        <path d="M246.1,202v1.8c0.7-0.8,1.4-1.3,2-1.7c0.6-0.4,1.3-0.5,2.1-0.5c0.9,0,1.6,0.2,2.2,0.7c0.6,0.5,1,1.1,1.2,1.8
		c0.2,0.6,0.2,1.6,0.2,3.2v5.3c0,1.1,0.1,1.7,0.3,2c0.2,0.3,0.6,0.4,1.2,0.5v0.5h-6.9v-0.5c0.5-0.1,0.9-0.3,1.1-0.6
		c0.2-0.2,0.2-0.8,0.2-1.8v-6.1c0-1.1,0-1.8-0.1-2.1c-0.1-0.3-0.2-0.5-0.5-0.7c-0.2-0.2-0.4-0.2-0.7-0.2c-0.8,0-1.6,0.6-2.3,1.8v7.3
		c0,1,0.1,1.7,0.3,1.9c0.2,0.3,0.6,0.4,1.1,0.5v0.5h-6.9v-0.5c0.6-0.1,1-0.2,1.2-0.6c0.2-0.2,0.2-0.8,0.2-1.9v-7.7
		c0-1-0.1-1.7-0.3-1.9c-0.2-0.3-0.6-0.4-1.2-0.5V202H246.1L246.1,202z" class="st1"/>
        <path d="M262,202v1.8c0.8-0.8,1.4-1.4,2.1-1.7c0.6-0.3,1.3-0.5,2.1-0.5c0.9,0,1.6,0.2,2.2,0.6c0.6,0.4,1.1,1,1.4,1.9
		c0.8-0.9,1.5-1.5,2.2-1.9c0.7-0.4,1.5-0.6,2.3-0.6c0.9,0,1.7,0.2,2.3,0.7c0.6,0.4,1,1,1.2,1.7c0.2,0.7,0.3,1.7,0.3,3.2v5.6
		c0,1.1,0.1,1.7,0.3,2c0.2,0.3,0.6,0.4,1.2,0.5v0.5h-7.1v-0.5c0.6,0,1-0.3,1.2-0.6c0.2-0.3,0.3-0.9,0.3-1.8v-5.9c0-1.2,0-2-0.1-2.3
		c-0.1-0.3-0.3-0.6-0.5-0.7c-0.2-0.2-0.4-0.2-0.7-0.2c-0.4,0-0.8,0.2-1.3,0.5c-0.4,0.3-0.9,0.8-1.3,1.4v7.3c0,1,0.1,1.6,0.2,1.9
		c0.2,0.4,0.7,0.6,1.3,0.6v0.5h-7.1v-0.5c0.4,0,0.7-0.1,0.9-0.3c0.2-0.2,0.4-0.4,0.4-0.6c0.1-0.2,0.1-0.8,0.1-1.6v-5.9
		c0-1.2,0-2-0.1-2.3c-0.1-0.3-0.3-0.6-0.5-0.7c-0.2-0.2-0.5-0.3-0.7-0.3c-0.4,0-0.7,0.1-1.1,0.3c-0.5,0.3-0.9,0.8-1.5,1.6v7.3
		c0,1,0.1,1.6,0.3,1.9c0.2,0.3,0.6,0.5,1.2,0.5v0.5h-7.1v-0.5c0.6-0.1,1-0.2,1.2-0.6c0.2-0.2,0.2-0.8,0.2-1.9v-7.7
		c0-1-0.1-1.7-0.3-1.9c-0.2-0.3-0.6-0.4-1.2-0.5V202H262L262,202z" class="st1"/>
        <path d="M291.6,208.3h-7.5c0.1,1.8,0.6,3.2,1.4,4.3c0.7,0.8,1.5,1.2,2.4,1.2c0.6,0,1.1-0.2,1.6-0.5
		c0.5-0.3,1-0.9,1.5-1.8l0.5,0.3c-0.7,1.5-1.6,2.6-2.5,3.2c-0.9,0.6-1.9,0.9-3.1,0.9c-2,0-3.6-0.8-4.6-2.3c-0.8-1.3-1.3-2.8-1.3-4.7
		c0-2.3,0.6-4.1,1.8-5.4c1.2-1.4,2.7-2,4.3-2c1.4,0,2.6,0.6,3.6,1.7C291,204.4,291.6,206.1,291.6,208.3L291.6,208.3z M288,207.3
		c0-1.6-0.1-2.6-0.3-3.2c-0.2-0.6-0.4-1-0.8-1.3c-0.2-0.2-0.5-0.3-0.8-0.3c-0.5,0-0.9,0.2-1.2,0.7c-0.6,0.9-0.9,2.1-0.9,3.6v0.5H288
		L288,207.3z" class="st0"/>
        <path d="M297.7,202v1.8c0.7-0.8,1.4-1.3,2-1.7c0.6-0.4,1.3-0.5,2.1-0.5c0.9,0,1.6,0.2,2.2,0.7c0.6,0.5,1,1.1,1.2,1.8
		c0.2,0.6,0.2,1.6,0.2,3.2v5.3c0,1.1,0.1,1.7,0.3,2c0.2,0.3,0.6,0.4,1.2,0.5v0.5H300v-0.5c0.5-0.1,0.9-0.3,1.1-0.6
		c0.2-0.2,0.2-0.8,0.2-1.8v-6.1c0-1.1,0-1.8-0.1-2.1c-0.1-0.3-0.2-0.5-0.5-0.7c-0.2-0.2-0.4-0.2-0.7-0.2c-0.8,0-1.6,0.6-2.3,1.8v7.3
		c0,1,0.1,1.7,0.3,1.9c0.2,0.3,0.6,0.4,1.1,0.5v0.5h-6.9v-0.5c0.6-0.1,1-0.2,1.2-0.6c0.2-0.2,0.2-0.8,0.2-1.9v-7.7
		c0-1-0.1-1.7-0.3-1.9c-0.2-0.3-0.6-0.4-1.2-0.5V202H297.7L297.7,202z" class="st1"/>
        <path d="M312.8,196.9v5h3.2v1.4h-3.2v8.4c0,0.8,0,1.3,0.1,1.5c0.1,0.2,0.2,0.4,0.4,0.6c0.2,0.1,0.4,0.2,0.5,0.2
		c0.6,0,1.2-0.5,1.8-1.4l0.4,0.3c-0.8,1.9-2.1,2.8-3.8,2.8c-0.9,0-1.6-0.2-2.2-0.7c-0.6-0.5-1-1-1.1-1.6c-0.1-0.3-0.1-1.2-0.1-2.7
		v-7.4h-1.8v-0.5c1.2-0.9,2.3-1.8,3.1-2.7c0.9-1,1.6-2,2.3-3.2H312.8L312.8,196.9z" class="st1"/>
        <path d="M141.6,132.2c-0.1,0.2-0.3,0.4-0.5,0.5" class="st1"/>
        <path d="M146.3,96.2c0.5,0,1-0.4,1-1c0-0.5-0.4-1-1-1c-0.5,0-1,0.4-1,1C145.3,95.8,145.7,96.2,146.3,96.2L146.3,96.2z" class="st1"/>
        <path d="M190.9,55.5L190.9,55.5l-34.7,0v0h0l0,28c0,2.7,1.1,5.1,2.7,5.8l13.3,8c0.3,0.3,0.7,0.5,1.2,0.5
		c0.4,0,0.8-0.2,1.1-0.4l13.5-8.1c1.6-0.7,2.7-3.1,2.7-5.8L190.9,55.5L190.9,55.5L190.9,55.5z M167.7,63.6h-3v-7.2h3V63.6
		L167.7,63.6z M165.5,66.1l0.4-0.4l-0.3-0.5l0.6,0.1l0.3-0.6l0.3,0.6l0.6-0.1l-0.3,0.5l0.4,0.4l-0.5,0.1v0.6l-0.5-0.4l-0.5,0.4v-0.6
		L165.5,66.1L165.5,66.1z M157.1,75.1v-6.8h3.6v6.8H157.1L157.1,75.1z M157.7,65.2l0.6,0.1l0.3-0.6l0.3,0.6l0.6-0.1l-0.3,0.5
		l0.4,0.4l-0.5,0.1v0.6l-0.5-0.4l-0.5,0.4v-0.6l-0.5-0.1l0.4-0.4L157.7,65.2L157.7,65.2z M161.9,72.1l0.6,0.1l0.3-0.6l0.3,0.6
		l0.6-0.1l-0.3,0.5l0.4,0.4l-0.5,0.1v0.6l-0.5-0.4l-0.5,0.4v-0.6l-0.5-0.1l0.4-0.4L161.9,72.1L161.9,72.1z M164.3,66.6
		c0-0.2-0.3-0.2-0.4-0.2c-0.3,0-0.5,0.5-0.7,0.6c-0.2,0-0.3,0-0.3-0.2c0-0.2,0.4-0.3,0.6-0.5c-2.2,0-2.3,1-2.6,1
		c-0.6,0,0.5-1.1,0.8-1.4c-0.5-0.1-0.7-0.6-1.2-0.9c0.2-0.3,0.4-0.2,0.7,0c0-0.2,0.2-0.5,0.7-0.5c1,0,0.7,1,0.9,1c0.2,0,0-1,0.7-1
		c1,0,2.2,2.6,1.1,2.6C163.9,67.1,164.3,66.7,164.3,66.6L164.3,66.6z M161.7,59.1l0.4-0.4l-0.3-0.5l0.6,0.1l0.3-0.6l0.3,0.6l0.6-0.1
		l-0.3,0.5l0.4,0.4l-0.5,0.1v0.6l-0.5-0.4l-0.5,0.4v-0.6L161.7,59.1L161.7,59.1z M160.8,56.5v7.2h-3.6v-7.2H160.8L160.8,56.5z
		 M167.7,93.5l-8.3-5c-1.4-0.9-2.1-2.6-2.3-4.6V76h10.6V93.5L167.7,93.5z M164.7,75.1v-6.8h3v6.8H164.7L164.7,75.1z M178.4,94
		l-3.8,2.3h-0.1c-0.3,0.2-0.6,0.4-1,0.4c-0.4,0-0.7-0.1-1-0.4l-3.8-2.3V76h9.7V94L178.4,94z M178.4,75.1h-9.7V56.5h9.7V75.1
		L178.4,75.1z M189.9,83.9c-0.2,2-0.9,3.7-2.3,4.6l-8.3,5V76h10.6V83.9L189.9,83.9z M189.9,75.1h-10.6V56.5h10.6V75.1L189.9,75.1z" class="st1"/>
        <path d="M167.1,82.4c-0.1-0.1-1.3,0.4-1,0.4c0-0.4,0.7-1.1,1.1-1.4c-0.1-0.4-0.6,0-1.2,0.3c2-2.8,0.7-1.7-0.4-1.5
		c1.8-1.9,1.3-1.9,0-1.3c1-0.8,1.2-1.8,1.1-2.1c-1,1.3-1.8,1.1-1.8,2.3c0,0.8-0.3,2.1-0.7,2.5c-0.5,0.6-0.1-2.1-1.5-2.1
		c-0.4,0-1.5,0-1.8,0.5c0.3,0,0.7,0.7,0.7,1c0,0.3,0.3,1-0.2,1c-0.5,0-1-1-1-1.4c0-0.5,0-0.4,0-1c0-1.1-1.8-2.7-2.6-2.7
		c0,0.8,1,1,1,2c-0.4,0-1-0.8-1-0.3c0,0.5,0.6,0.6,0.6,1c0,0.4-0.7-0.2-0.7,0.3c0,0.4,0.4,0.3,0.5,0.7c-0.3-0.1-0.6,0-0.6,0.1
		c0,0.1,0.1,0.3,0.3,0.4c-0.1,0.1-0.2,0.3-0.2,1c0,2.2,1.4,3.2,2.4,3.2c0.7,0,0.6-0.5,0.7-0.7c0,0.4,0.4-0.2,0.4,0.5
		c0,0.7-0.7,0.4-0.7,1c0,0.8,1.1,0,1.1,0.8c0,1.1-0.1,1-0.1,1.4c0,0.3,1.2-0.4,1.1-0.5c0.3,0.1,0.3,0.9,0.8,0.9
		c0.3,0,0.4-0.8,0.7-0.9c-0.2,0,1.1,0.8,1.1,0.4c0-1-0.4-0.6-0.4-1.3c0-0.7,1.4-0.5,1.2-0.9c-0.2-0.3-0.3-0.1-0.5-0.6
		c0,0.1-1.1-1.6,0.2-0.7C167,85.7,167.2,82.6,167.1,82.4L167.1,82.4z" class="st1"/>
        <path d="M204.1,89.7c0.6,0,1.1-0.5,1.1-1s-0.5-1-1.1-1s-1.1,0.4-1.1,1S203.5,89.7,204.1,89.7L204.1,89.7z" class="st1"/>
        <path d="M199.5,92.5c0.6,0,1.1-0.5,1.1-1c0-0.6-0.5-1-1.1-1s-1.1,0.5-1.1,1C198.4,92,198.9,92.5,199.5,92.5L199.5,92.5
		z" class="st1"/>
        <path d="M144.7,98.8c0.6,0,1.1-0.5,1.1-1c0-0.6-0.5-1-1.1-1c-0.6,0-1.1,0.5-1.1,1C143.6,98.4,144.1,98.8,144.7,98.8
		L144.7,98.8z" class="st1"/>
        <path d="M148.3,99.1c0.6,0,1.1-0.5,1.1-1c0-0.6-0.5-1-1.1-1c-0.6,0-1.1,0.5-1.1,1C147.1,98.7,147.6,99.1,148.3,99.1
		L148.3,99.1z" class="st1"/>
        <path d="M247,51.3c1.7,2,2.1,5.2,0.8,7.6c-0.7-0.1-0.5-0.9-0.7-1.4c-1.2-2.3-2.2-5.1-1.1-7.7
		C246.8,49.9,246.5,50.9,247,51.3L247,51.3z" class="st1"/>
        <path d="M102.1,54c-0.4,1.5-0.4,3.5,0,4.8c-0.3,0.3-0.2-0.3-0.5-0.2c-2.4-1.7-1.3-5.1-1.9-7.4c0.1-0.2,0.4-0.2,0.6-0.1
		C101.4,51.8,101.9,52.8,102.1,54L102.1,54z" class="st1"/>
        <path d="M252.2,54.2c0.4,0.7-0.3,1.3-0.8,1.6c-0.5,0.1-1.1-0.2-1.5-0.7c-0.2-0.7,0.2-1.3,0.7-1.6
		C251.2,53.5,251.8,53.7,252.2,54.2L252.2,54.2z" class="st1"/>
        <path d="M98.4,56.9c-0.1,0.5-0.3,1.1-0.8,1.3c-0.4,0-0.9,0-1.1-0.3c-0.4-0.3-0.4-0.9-0.2-1.3c0.2-0.4,0.7-0.5,1.2-0.5
		C97.8,56.3,98.3,56.4,98.4,56.9L98.4,56.9z" class="st1"/>
        <path d="M254.5,57.9c0.1,0.4,0.1,0.6,0,1c-0.4,0.5-1,0.8-1.6,0.5c-0.4-0.2-0.5-0.7-0.7-1c0.1-0.5,0.6-0.9,1-1.1
		C253.8,57.3,254.2,57.6,254.5,57.9L254.5,57.9z" class="st1"/>
        <path d="M251.1,58c0.5,0.2,0.1,0.9,0.1,1.2c-0.3,0.3-0.7,0.8-1.3,0.6c-0.3-0.3-0.7-0.3-0.8-0.7c0-0.6,0.2-1.2,0.8-1.4
		C250.4,57.6,250.7,57.8,251.1,58L251.1,58z" class="st1"/>
        <path d="M246.7,58.9c0,0.7,0.1,1.5-0.7,1.6c-0.7,0.2-1.2-0.4-1.4-0.9c-0.1-0.6,0.3-1.2,0.9-1.5
		C245.9,58.2,246.4,58.5,246.7,58.9L246.7,58.9z" class="st1"/>
        <path d="M105,59.2c0.2,0.6-0.4,1-0.8,1.3c-0.4,0.1-1-0.2-1.2-0.7c-0.4-0.4,0.1-0.8,0.2-1.2
		C103.9,58.1,104.8,58.5,105,59.2L105,59.2z" class="st1"/>
        <path d="M101.4,59.4c0,0.5-0.2,1-0.7,1.2c-0.5,0.2-1-0.2-1.2-0.6c-0.3-0.6,0.1-1.2,0.5-1.4
		C100.7,58.3,101.2,59,101.4,59.4L101.4,59.4z" class="st1"/>
        <path d="M232,59.6c0.6,1.3,1.1,2.8,1.2,4.4c-0.2,1.2,0.2,2.7-0.7,3.5c-0.8-0.3-0.9-1.3-1.5-1.9
		c-1.1-2.1-0.1-4.6,0.2-6.7C231.8,58.7,231.8,59.3,232,59.6L232,59.6z" class="st1"/>
        <path d="M98.6,60.4c0.2,0.7-0.4,1.1-0.8,1.5c-0.7,0.2-1.2-0.4-1.5-0.9c-0.1-0.6,0.3-1.2,0.8-1.5
		C97.6,59.5,98.3,59.8,98.6,60.4L98.6,60.4z" class="st1"/>
        <path d="M241.6,62.1c0.8,1.8,0.8,3.9,0.3,5.9l-0.4,0.3c-0.8-1.6-2.1-3.2-2.5-4.9c0-1.3,0.2-2.4,0.7-3.5
		c0.4-0.3,0.7,0.1,0.8,0.4C240.7,61,241,61.8,241.6,62.1L241.6,62.1z" class="st1"/>
        <path d="M249.2,61c-0.1,0.6-0.3,1.3-0.9,1.5c-0.6,0.1-1.2-0.1-1.4-0.7c-0.2-0.6,0.2-1.2,0.7-1.5
		C248.2,59.9,248.9,60.5,249.2,61L249.2,61z" class="st1"/>
        <path d="M101.5,62.9c0,0.5-0.4,1-0.9,1.2c-0.5,0.4-0.8-0.2-1.3-0.4c-0.2-0.5-0.3-0.9,0-1.4c0.2-0.4,0.6-0.4,1-0.5
		C100.8,62.1,101.3,62.3,101.5,62.9L101.5,62.9z" class="st1"/>
        <path d="M104.1,62.6c0.2,0.6-0.4,0.9-0.7,1.2c-0.7,0.2-1.1-0.3-1.4-0.7c-0.1-0.6,0.2-1,0.7-1.3
		C103.5,61.6,103.8,62.1,104.1,62.6L104.1,62.6z" class="st1"/>
        <path d="M250.9,62.4c-0.1,0.8-1.3,1.6-1.4,2.4c-0.7,1.6-2.1,2.9-3.7,3.4c-0.4,0.3-0.8,0.7-1.4,0.8
		c-0.1-1.2,1-2.3,1.6-3.4C247.3,64,249,62.9,250.9,62.4L250.9,62.4z" class="st1"/>
        <path d="M100.3,65c0.9,1,1.4,1.9,2.5,2.9c0.1,0.2-0.1,0.6-0.4,0.6c-3-0.2-5-3.2-6.4-5.4c0.2-0.7,1-0.1,1.4-0.2
		C98.3,63.7,99.5,64,100.3,65L100.3,65z" class="st1"/>
        <path d="M251.7,65.8c-0.1,2.6-1.4,5.3-3.8,6.6c-0.7,0.2-1.4,0.9-2.1,0.5c1.3-2.6,3.2-4.8,5.3-7.1H251.7L251.7,65.8z" class="st1"/>
        <path d="M240.1,67.6c0.2,0.9-0.3,1.5-1,1.8c-0.7,0.1-1.1-0.5-1.4-1c-0.1-0.6,0.3-1.2,0.8-1.3c0.2-0.2,0.5-0.2,0.7-0.2
		C239.6,67,239.8,67.3,240.1,67.6L240.1,67.6z" class="st1"/>
        <path d="M96.9,68.2c1.2,0.8,2.2,1.9,3.3,2.9c-0.8,0.5-1.8,0.1-2.7,0.1c-2.1-0.7-3.4-2.5-5.6-3.1
		c0.1-0.7,0.8-0.4,1.3-0.6C94.6,67.2,95.7,67.9,96.9,68.2L96.9,68.2z" class="st1"/>
        <path d="M161.7,50.1c-3.4-1.3-5.6,2.2-9.1,1.8c-0.4,0.2-0.3,0.7-0.5,1c-0.2,0.2-0.5,0.1-0.7-0.1
		c-0.2-1.5-0.7-2.8-0.8-4.2c-0.4-0.6-0.2-1.5-0.5-2.1c-1.9-5.3,4.7-1.3,6-4.4c1.2-2.7-2.2-3-3.3-4.9v-0.8c-1-1-2-1.3-2.6-2.6
		c0.4-1.5,0.6-3.2,0.2-4.7c-0.1-0.4-0.3-0.9-0.8-0.7c-1.2,1.6-2,2.9-3.1,4.4c-1.1-0.9-2.2-1.9-3.6-2.7c-0.9-0.1-1.8-1-2.8-0.7
		c-0.2,0.4,0,0.7,0.2,0.9c0.1,2.4,1.3,4.3,3,6l0.2,0.9c-1.1,2.5-0.8,5.4-1.1,8c-2.7,6.9-7.1,13.6-13.1,18.5c-3.4,3.9-7.6,7.7-8.1,13
		c-0.2,0.9,0.1,1.9-0.5,2.5c-2-0.7-4-1.7-5.6-3c-2.8-2-6.8-1.7-8.6-5.2c-0.7-1.4,0.2-2.8,0.8-3.8c2.1-1.9,1.8-5.4,0.7-7.8
		c-0.2-0.1-0.3,0.2-0.5,0.3c-0.2,3.6-3,6.1-1.9,10.1c0.2,1.2,0.8,1.9,1.2,3c-0.4-0.1-1-0.1-1.4-0.3c-1.3-0.2-2.7-0.7-4.1-0.5
		c-2.8,1.3-6.6-0.3-8.8,2.3c-0.4,0.1-0.8,0.1-0.7,0.7c1.3,0,2.6,0.4,3.9,0.3c2.1,0.4,3.5-1.4,5-2.2h0.4c0.6-0.6,1.6-0.2,2.4-0.4
		c3.8,0.4,6.8,2.3,9.9,4.1v0.2c-1.2,0.5-2.6,0.9-3.8,1.6c-1.4,1-3,2.4-3.4,4.1c-1,1.5,0.3,2.9,0.9,4.1c0.1,0.6,0.1,1.3,0.7,1.6
		c1.9-2.1,0.1-4.6,0.4-7c0.5-1.8,2.2-2.7,3.9-3.2c3.4-1.5,5.9,1.3,8.7,2.9c-0.1,2.8,0.3,5.5-0.3,8.2c-0.8,0.3-1.9,0.5-2.8,0.4
		c-4.8,0.4-8.5,3-12.8,4.4c-1.9,0.7-4.2,0.6-6.2,1.3c1.5,0.4,3.1-0.1,4.7-0.2c5.9-0.9,10.5-5.4,16.9-4.6l0.1,0.2
		c-0.7,1.5-1.7,2.8-2.8,4c-0.2-0.7-0.2-1.2-0.8-1.6c-0.5-0.2-1,0-1.4,0.5c-0.2,0.3-0.2,0.7,0,0.9c0.3,0.5,0.8,0.7,1.3,0.9
		c-0.1,0.5-0.8,0.8-1.1,1.3c-1.7,2.9-5.1,1.7-7.1,3.7c-0.3,0.4-1.4,0.7-0.9,1.3c2.3,0.2,4.5-0.4,6.2-1.6c2.2-2.5,4.6-4.9,6.8-7.2
		c0.4,2-0.2,4-1.3,5.5c-0.5-0.3-1-0.7-1.6-0.9c-0.6,0.1-1,0.7-1.1,1.2c0.2,0.4,0.5,0.9,0.9,1.2c-2.1,1.5-4.7,1.6-7,2.3
		c-4.4,0.5-8.7,0.9-13.2,1c-2.1-0.1-4.5,0.6-6.5,0c-2.3,0.4-4.8-0.3-6.7,1c-0.2,0.3,0.1,0.6,0.1,0.9c2.8,1.8,6.6,0.4,9.7,0.9h23.8
		c1.8-0.1,3.5-0.1,4.9-0.9c3.1-1.8,4.8-4.9,6.4-8c0.6-1.1,1-2.4,1.3-3.7c0.6-2.1,2.5-3.5,4.5-3.7c0.3,3.2-0.3,6.3-1,9.3
		c-0.4,2-1.6,3.8-0.8,5.9c0.2,1,1.2,1,2,1.1c7.3-0.1,14.6-0.4,22.4,0.1c1.4,0.2,2.6,0.7,4.1,0.6c0.1-0.2,0.5-0.2,0.4-0.6
		c-0.2-0.7-0.7-1.5-1.5-1.7c-0.1-0.4-0.7-0.2-0.8-0.5c-3.9-2.2-8.5-1-13.1-1c-2.4,0.2-4.7,0.7-6.7-0.7c-0.9-1.1-0.2-4.6-0.2-4.6
		c0-1.4,3.3-11,3.8-11.8c0.1-0.9,0.5-1.8,0.4-2.8c0.5-1.2,0.4-2.8,0.4-4.1c0.2-2,1.2-3.8,1.9-5.7c0.4-0.9,0.7-1.9,1-2.8
		c0.4-1.2,0.5-2.3,1.2-3.2c2,1.3,3.9,1.2,4.9,3.5l0.8,5.1c0,0.3,0.2,0.9,0.7,0.6c1.6-1,1.1-3.4,1.1-4.9c0.4-1.9-1-2.8-1.5-4.4
		c-0.4-0.3-1.1-1.8-1.1-1.8c-0.2-1.3-3.2-2.3-2.5-3.9c0.4-1.4,0.7-2.7,2.1-3.5c0.2,0.1,0.3,0.3,0.3,0.4l0.7-0.5l0.1-5.1
		c2,0,4.9,0.2,6.9,0.2c0.5,0.2,1,0.6,1.6,0.7l0.5-0.7l4.9-1C165,52.5,163.7,50.1,161.7,50.1L161.7,50.1z" class="st1"/>
        <path d="M167,52.3c0.1,0,0.3,0,0.5-0.1L167,52.3L167,52.3z" class="st1"/>
        <path d="M114.3,69.3c0.1,0.7-0.4,1.2-0.9,1.4c-0.5-0.2-0.8-0.2-1.1-0.7c-0.2-0.7,0.4-1.2,0.8-1.4
		C113.6,68.6,114.2,68.7,114.3,69.3L114.3,69.3z" class="st1"/>
        <path d="M110.4,69.3c0.4,0.4,0.4,1,0.2,1.4c-0.4,0.4-1.1,0.7-1.5,0.2c-0.4-0.4-0.7-0.8-0.4-1.3
		C109.2,69.1,109.9,68.8,110.4,69.3L110.4,69.3z" class="st1"/>
        <path d="M194.6,69.9C194.6,70,194.7,70,194.6,69.9" class="st1"/>
        <path d="M240.7,71c0.2,0.7-0.3,1.2-0.8,1.4c-0.6-0.2-1.4-0.3-1.4-1.1c0.1-0.5,0.5-0.8,0.9-0.9
		C240,70.2,240.5,70.6,240.7,71L240.7,71z" class="st1"/>
        <path d="M243.9,70.8c0.2,0.3,0.6,0.8,0.1,1.1c-0.2,0.2-0.4,0.2-0.6,0.5c-0.7,0.1-1.3-0.1-1.5-0.7
		c-0.1-0.7,0.4-1,0.9-1.3C243.3,70.3,243.6,70.6,243.9,70.8L243.9,70.8z" class="st1"/>
        <path d="M95.2,71.6c-0.2,0.7-0.8,1-1.6,0.8c-0.2-0.2-0.4-0.5-0.5-0.8c0.1-0.4,0.2-0.9,0.7-1
		C94.5,70.6,95,70.9,95.2,71.6L95.2,71.6z" class="st1"/>
        <path d="M115.6,72.6c-0.1,0.5-0.6,0.9-1,1.2c-0.6,0.1-1-0.4-1.3-0.9c0-0.5,0.2-1.1,0.7-1.2
		C114.6,71.4,115.4,71.9,115.6,72.6L115.6,72.6z" class="st1"/>
        <path d="M112,72.2c0.2,0.2,0.4,0.7,0.2,1c-0.4,0.3-0.9,0.9-1.5,0.5c-0.4-0.3-0.8-0.5-0.7-1.2c0.2-0.2,0.5-0.6,0.9-0.7
		C111.4,71.6,111.7,71.9,112,72.2L112,72.2z" class="st1"/>
        <path d="M253.2,72.9c0,0.5-0.5,1-0.8,1.2c-0.5,0.2-1,0.1-1.3-0.3c-0.4-0.1-0.2-0.6-0.2-0.9c0.3-0.4,0.7-0.7,1.1-0.8
		C252.5,72.2,252.9,72.5,253.2,72.9L253.2,72.9z" class="st1"/>
        <path d="M257.1,73.5c-0.2,0.5-0.6,1-1.1,1.1c-0.4-0.1-1-0.2-0.9-0.7c0-0.4,0.2-0.9,0.5-1
		C256.2,72.5,256.9,72.8,257.1,73.5L257.1,73.5z" class="st1"/>
        <path d="M102.1,74.3c0.1,0.7-0.1,1.2-0.7,1.5c-0.4,0.2-0.8-0.1-1.1-0.3c-0.3-0.3-0.5-0.8-0.3-1.2
		c0.1-0.5,0.7-0.4,1-0.7C101.5,73.6,101.8,73.9,102.1,74.3L102.1,74.3z" class="st1"/>
        <path d="M105.1,74.9c0.2,0.5-0.4,0.7-0.5,1c-0.3,0.2-0.7,0.4-1.1,0.1c-0.4-0.4-0.9-0.9-0.5-1.5
		C103.5,73.6,104.8,74.1,105.1,74.9L105.1,74.9z" class="st1"/>
        <path d="M249.6,74.6c0.1,0.6-0.5,1-0.8,1.4c-0.5,0.1-1.1-0.2-1.2-0.7c-0.1-0.5,0.2-0.9,0.7-1.2
		C248.8,74,249.3,74.1,249.6,74.6L249.6,74.6z" class="st1"/>
        <path d="M254.6,75.5c-0.1,0.5-0.1,1.2-0.7,1.5c-0.5,0.1-1.1,0.1-1.5-0.2c-0.4-0.3-0.4-0.9-0.2-1.3
		c0.3-0.5,0.8-0.9,1.5-0.7C254.1,75,254.2,75.3,254.6,75.5L254.6,75.5z" class="st1"/>
        <path d="M99.8,76.8c0.2,0.5-0.3,0.6-0.5,0.9c-0.4,0.2-0.8,0.1-1.2-0.1c-0.4-0.2-0.2-0.9-0.2-1.2
		C98.5,75.3,99.6,76.1,99.8,76.8L99.8,76.8z" class="st1"/>
        <path d="M250.8,78c0.2,0.1,0.1,0.4,0.1,0.5c-1.5,0.7-3.6,0.9-4.9-0.2c-0.7-0.6-1.6-0.9-2.4-1.3
		c0.3-0.8,1.4-0.7,2.2-0.9C247.4,76.3,248.8,77.9,250.8,78L250.8,78z" class="st1"/>
        <path d="M102.7,77.4c0.1,0.5-0.2,0.7-0.4,1c-0.2,0.4-0.7,0.2-1,0.1c-0.5-0.4-0.8-1-0.4-1.5
		C101.6,76.4,102.4,76.7,102.7,77.4L102.7,77.4z" class="st1"/>
        <path d="M108.1,77.8c0.2,0.5-0.1,1-0.6,1.3c-0.4,0.2-0.8-0.1-1.2-0.2c-0.3-0.4-0.8-0.9-0.3-1.4
		C106.5,76.6,107.6,77.1,108.1,77.8L108.1,77.8z" class="st1"/>
        <path d="M178,80.4c-0.1,1.2-2.1-0.2-1.8,1.4c0.3,1.2,0.5,2.5,1.2,3.4c0.6,0.8,0.3,2.1,0.2,3.1c-0.5,0.9-1.4,1.5-2.3,2
		c-1.7-0.2-4.3,0.9-5.1-1.3c-0.3-0.9-1-1.9-1-2.9c0.2-0.1,0.4-0.1,0.6-0.3c0-0.4-0.5-0.6-0.4-1c2-0.3-0.8-2.1,0.9-2.2
		c1.4,1.4,3.6,1,4.8,2.5c0.3,0.2,0.5,0.6,0.9,0.8c-0.2-1.4-0.9-2.9-1.1-4.5c-0.2-0.8,0.1-1.6,0.7-2C176.6,78.6,177.4,79.7,178,80.4
		L178,80.4z" class="st1"/>
        <path d="M113.4,80c0.2,0.6-0.3,1-0.7,1.3c-0.5,0.2-0.8-0.4-1.1-0.7c-0.2-0.6,0.2-0.9,0.6-1.2
		C112.7,79.4,113.1,79.6,113.4,80L113.4,80z" class="st1"/>
        <path d="M150.7,80.6c0.7,2.4,0.5,4.8-0.7,6.8c-0.1,0.5,0.1,1.3-0.5,1.2c-1.6-2.3-0.4-5.4,0.2-7.8
		C149.8,80.2,150.5,80,150.7,80.6L150.7,80.6z" class="st1"/>
        <path d="M202.5,81.7c0.8,1.7,0.9,4,0.1,5.7l-0.5,0.5c-0.7-1.4-1.2-2.8-1.4-4.3c0.3-1.1,0.7-2.1,0.7-3.2
		C202.3,80.2,202.2,81.3,202.5,81.7L202.5,81.7z" class="st1"/>
        <path d="M118.1,82.4c-0.4,0.7-1.4,0.9-2.1,1.4c-1.4,1.1-3.6,1.3-5.4,1c1.6-2.2,4-3.5,6.9-2.9
		C117.7,82.2,118,82.1,118.1,82.4L118.1,82.4z" class="st1"/>
        <path d="M93.2,84.6c2.2,1.6,2.8,3.8,4.2,6c0.2,0.2,0.8,0.3,0.5,0.8c-0.5,0.4-1-0.4-1.6-0.2c-2.3-1-3.8-3.6-3.7-6.3
		C92.6,84.6,93,84.6,93.2,84.6L93.2,84.6z" class="st1"/>
        <path d="M200.1,86.5c0.1,0.6-0.1,1.2-0.5,1.4c-0.7,0.2-1.2-0.2-1.4-0.7c-0.2-0.4,0.2-0.7,0.3-1
		C199,85.7,199.8,85.9,200.1,86.5L200.1,86.5z" class="st1"/>
        <path d="M225.7,89.7c0-1.2,0.3-2.3,0.4-3.4c0.2-0.4,0.3-0.8,0.2-1.3c1.5-2,4.4-1.3,6.7-1.2c0.9,0.5,2.1,0.4,3,0.7
		c0.4-0.3,1-0.4,1.5-0.3c1.9-1,0.7-3.3,0.8-5.1l-0.7-1.8c-0.2-0.4-0.4-0.8-0.5-1.2c-0.4-0.4-0.6-1.2-1-1.6c-1-2.7-3-4.2-4.7-6.3
		c-3.1-4-7.9-6.3-12.8-7.9c-4.8-1.6-9.6,0.5-13.9,2c-1.3-0.4-2-1.4-2.4-2.6c-0.2-2.3,0.2-4.6,1.1-6.5c0.2-1.5,1.2-2.7,1.6-4.1
		c1.1-3.4,2.2-6.8,2.5-10.5c0.1-2.3-1.6-3.8-3.3-4.8c-1.1-0.3-2.5-0.2-3.3,0.7c-0.8,1.6-2.5,2.7-3.9,3.5c-0.1,1,1.1,0.4,1.6,0.7
		c1.3,0.2,2.8-0.2,3.9,0.7c0.1,2.4-1.3,4.4-2.5,6.3c-2.1,3-4.2,6.2-5.5,9.5l-0.2-0.2l0.3,14.9c1.9,3.2,4.3,6.9,7.9,8.1
		c1.9,1.6,4.4,3.5,7,2.1c1.4-0.4,1.5,1.5,2.2,2.3c0.7,2.3-0.9,3.8-1,5.9l-1.6,3.4c-1.8,3.5-3.4,7.3-6.2,10.3c-0.9,0-1.5,1-2.4,1
		c-0.5,0.7-1.5,0.2-2.1,0.4c-1.9,0.8-4.5,0.3-5.8,2.1c0.1,0.2,0.3,0.2,0.5,0.3c3.7,0.1,7.8,0.3,11.7,0.1c0.5-0.2,0.9-0.6,1-1.2
		c-0.5-1,0.2-2,0.7-2.7c0.3-1.5,1.3-2.4,1.7-3.8c1.3-2.5,2.7-4.9,4.1-7.4l1.9-3c0.4-1,1.1-2.3,1.9-3.4c0.5-0.5,0.7-1,1.1-1.6
		c0.1-0.6-0.2-0.9-0.6-1.3c0.4-0.4,1.1-0.3,1.6-0.4c1.5,0.9,3.1,2.4,3.4,4l0.5,1.6l0.2,0.7l-0.1,2l0.2,1.9c0.3,2.9-0.2,5.9-0.5,8.8
		c-1,3.5-5.1,3.2-8,4c-0.7,0.5-2.1,0.2-2.1,1.5c3.5,0.7,7.6,0.3,11.4,0.2c0.6-0.2,0.7-0.8,1-1.3c0.1-0.8,0.9-1.5,0.7-2.3
		c-0.7-0.9-0.1-2.2-0.2-3.4c0.1-0.3,0.1-0.7,0-1.2c0.5-1.8,0.4-3.9,0.7-5.6L225.7,89.7L225.7,89.7z" class="st1"/>
        <path d="M255.4,87.4c-1.9,2.7-4,5.8-7.4,6.8c-0.2,0-0.5,0.1-0.6-0.2c2.1-2.2,3.1-5.6,6.4-6.4
		C254.3,87.4,254.9,87.1,255.4,87.4L255.4,87.4z" class="st1"/>
        <path d="M90.3,90.3c-0.3,0.2-0.1,0.8-0.6,0.9c-0.5,0.2-1-0.1-1.3-0.5c-0.2-0.6,0.3-1.2,0.8-1.3
		C89.7,89.5,90.1,89.7,90.3,90.3L90.3,90.3z" class="st1"/>
        <path d="M107.7,91.2c0.2,0.5-0.4,0.5-0.7,0.7c-2.5,0.9-5.1,0.1-7-1.8c0-0.2,0-0.5,0.2-0.5
		C102.7,90.2,105.6,89.7,107.7,91.2L107.7,91.2z" class="st1"/>
        <path d="M93.6,90.4c0.1,0.2,0.2,0.7,0.1,0.9c-0.4,0.5-0.9,0.7-1.5,0.5c-0.4-0.2-0.5-0.4-0.8-0.8c0.1-0.6,0.5-1,1-1.2
		C92.9,90,93.3,90.1,93.6,90.4L93.6,90.4z" class="st1"/>
        <path d="M150.3,90.7c0.1,0.5-0.4,0.9-0.7,1.2c-0.5,0.1-1-0.1-1.3-0.5c-0.2-0.4,0-1,0.4-1.2
		C149.3,90.1,150.1,90.2,150.3,90.7L150.3,90.7z" class="st1"/>
        <path d="M257.7,90.9c0.2,0.6-0.4,0.9-0.8,1.3c-0.4,0.2-0.8,0-1.2-0.2c-0.1-0.3-0.4-0.5-0.3-1c0.2-0.5,0.8-0.8,1.4-0.7
		C257.2,90.6,257.4,90.6,257.7,90.9L257.7,90.9z" class="st1"/>
        <path d="M261.7,90.7c0.4,0.5,0.1,1-0.2,1.4c-0.2,0.4-0.7,0.5-1.1,0.4c-0.4-0.4-0.8-0.5-0.9-1.1c0-0.5,0.5-0.9,0.9-1
		C261,90.1,261.2,90.7,261.7,90.7L261.7,90.7z" class="st1"/>
        <path d="M87.7,92.5c0.1,0.4-0.3,0.7-0.4,1c-0.3,0.1-0.6,0.4-1,0.2c-0.4-0.2-0.7-0.5-0.9-1c0.1-0.5,0.5-1,1.1-1.2
		C87,91.7,87.5,91.9,87.7,92.5L87.7,92.5z" class="st1"/>
        <path d="M215.1,92.5c0.1,0.2,0.1,0.5,0.1,0.8c-0.4,0.5-0.8,0.9-1.5,0.6c-0.4-0.4-0.8-0.7-0.6-1.3
		C213.6,91.9,214.7,91.7,215.1,92.5L215.1,92.5z" class="st1"/>
        <path d="M97.5,93.4c-0.1,0.4-0.3,0.9-0.8,0.9c-0.5,0.1-0.7-0.4-1-0.7c0-0.5-0.1-1.1,0.5-1.4
		C96.8,92,97.5,92.6,97.5,93.4L97.5,93.4z" class="st1"/>
        <path d="M91.7,93.5c0.2,0.6-0.2,1-0.6,1.3c-0.7,0.2-1.3-0.3-1.6-0.9c0.1-0.5,0.5-1.2,1.1-1.4
		C91.1,92.6,91.4,93.2,91.7,93.5L91.7,93.5z" class="st1"/>
        <path d="M219.1,93.4c0.1,0.6-0.1,1.2-0.7,1.5c-0.7,0.2-1.3-0.4-1.6-0.9c0.3-0.5,0.4-1.2,1.1-1.3
		C218.5,92.7,218.8,93,219.1,93.4L219.1,93.4z" class="st1"/>
        <path d="M94.5,93.6c0.2,0.4-0.2,0.6-0.3,0.9c-0.3,0-0.5,0.4-0.8,0.2c-0.2-0.3-0.7-0.4-0.8-0.9
		c-0.1-0.6,0.4-0.9,0.8-1.2C94,92.7,94.3,93.1,94.5,93.6L94.5,93.6z" class="st1"/>
        <path d="M254.4,94.1c-0.2,0.5-0.5,0.7-1,1c-0.5,0.1-0.8-0.3-1.1-0.5c-0.3-0.2-0.2-0.8-0.1-1.1
		C252.8,92.5,254.4,93,254.4,94.1L254.4,94.1z" class="st1"/>
        <path d="M259,94.4c-0.2,0.7-0.8,1-1.5,1c-0.5-0.2-1.1-0.7-0.7-1.4c0.2-0.2,0.4-0.5,0.7-0.5
		C258.3,93.2,258.8,93.7,259,94.4L259,94.4z" class="st1"/>
        <path d="M230.3,94.8c0.3,0.8-0.4,1-0.9,1.4c-0.4-0.1-0.8-0.2-1.2-0.5c-0.1-0.7,0.2-1.3,0.8-1.6
		C229.6,94.1,229.9,94.4,230.3,94.8L230.3,94.8z" class="st1"/>
        <path d="M213.6,95.5c0.3,0.1,0.2,0.5,0.1,0.7c-0.4,0.2-0.8,0.9-1.4,0.5c-0.4-0.2-0.7-0.6-0.6-1.2
		C212,94.9,213.3,94.8,213.6,95.5L213.6,95.5z" class="st1"/>
        <path d="M217,95.9c0.1,0.5-0.1,0.7-0.5,1c-0.4,0.4-0.9-0.1-1.3-0.2c-0.1-0.2-0.2-0.6-0.1-0.9c0.2-0.2,0.5-0.4,0.8-0.5
		C216.3,95.5,216.8,95.5,217,95.9L217,95.9z" class="st1"/>
        <path d="M114.3,96c0.4,0.4-0.1,0.8-0.1,1.2c-0.3,0.4-1,0.7-1.5,0.3c-0.6-0.2-0.5-1-0.4-1.5c0.4-0.1,0.4-0.5,0.8-0.5
		C113.7,95.5,114,95.7,114.3,96L114.3,96z" class="st1"/>
        <path d="M236.7,96.2c0.1,0.6-0.5,0.9-0.9,1c-0.7,0.2-1.1-0.3-1.4-0.8c0-0.4,0.4-0.6,0.5-0.9
		C235.8,95.2,236.3,95.8,236.7,96.2L236.7,96.2z" class="st1"/>
        <path d="M233.5,96.2c0.2,0.6-0.4,0.9-0.7,1.2c-0.4,0.2-1,0.1-1.3-0.2c-0.3-0.2-0.3-0.5-0.3-0.9c0.4-0.3,0.5-0.7,1-0.8
		C232.7,95.5,233.2,95.8,233.5,96.2L233.5,96.2z" class="st1"/>
        <path d="M260.7,97c0.1,0.9-1,0.4-1.4,0.7c-2.5,1.5-5.8,0.4-8.2-0.5c0.2-0.8,1.1-0.5,1.6-0.8c2.6-1.6,5.3,0.4,7.9,0.5
		L260.7,97L260.7,97z" class="st1"/>
        <path d="M95.2,96.2l-0.2,0.4c-2.2,1.3-5.1,2.3-7.8,1.4l-0.2-0.4c2.2-1.6,5.2-2.1,8.1-1.6L95.2,96.2L95.2,96.2z" class="st1"/>
        <path d="M242.9,96.7c0,0.5-0.2,0.9-0.6,1.2c-0.6,0.2-1.4,0-1.6-0.7c-0.2-0.5,0.3-1,0.8-1.2
		C241.9,96,242.7,96.1,242.9,96.7L242.9,96.7z" class="st1"/>
        <path d="M106,96.9c-0.2,0.5-0.1,1-0.7,1.2c-0.6,0.2-1.3-0.3-1.5-0.8c-0.2-0.7,0.3-0.9,0.6-1.2
		C105.1,95.8,105.6,96.4,106,96.9L106,96.9z" class="st1"/>
        <path d="M101.7,97.2c0.2,0.4-0.2,0.7-0.3,1c-0.3,0.4-0.8,0.3-1.2,0.2c-0.4-0.4-0.8-0.8-0.7-1.5c0.4-0.3,0.5-0.5,1-0.7
		C101,96.4,101.6,96.6,101.7,97.2L101.7,97.2z" class="st1"/>
        <path d="M247.1,98.6c-0.1,0.5-0.5,1-1,1.1c-0.5,0.1-0.9-0.3-1.1-0.6c-0.2-0.4-0.1-0.9,0.2-1.2c0.1-0.2,0.5-0.2,0.8-0.3
		C246.6,97.7,247,98.1,247.1,98.6L247.1,98.6z" class="st1"/>
        <path d="M97.2,98c0.2,0.5-0.2,0.7-0.3,1c-0.2,1-0.8,1.7-1.3,2.6c-1.2,1.4-2.8,1.4-4.4,1.8l-0.2-0.5
		c1.8-2.3,3.6-4,6.1-5.1L97.2,98L97.2,98z" class="st1"/>
        <path d="M244.1,99.3c0.1,0.7-0.5,0.9-0.9,1.2c-0.5,0-1-0.3-1.2-0.7c-0.2-0.7,0.4-0.9,0.8-1.2
		C243.4,98.4,243.9,98.8,244.1,99.3L244.1,99.3z" class="st1"/>
        <path d="M104.2,99.3c-0.1,0.1,0.1,0.2,0.2,0.3c-0.1,0.7-0.5,0.9-0.9,1.2c-0.5,0-1-0.2-1.3-0.6c-0.2-0.5,0-1.2,0.6-1.4
		C103.3,98.7,104,98.7,104.2,99.3L104.2,99.3z" class="st1"/>
        <path d="M255.2,101.1c0.6-0.1,0.7-0.8,1.4-0.9c0.6-0.1,1.1,0.2,1.5,0.7c0.2,0.7-0.3,1.1-0.8,1.4
		c-0.4,0.3-1.3-0.4-1.3,0.4c0.4,0.3,0.8,0.7,0.8,1.2c-0.1,0.2-0.5,0.2-0.7,0.1c-1.8-0.7-3.6-1.9-4.4-3.8c-0.2-0.5-1.4-1-0.7-1.5
		C252.8,98.6,254.3,100,255.2,101.1L255.2,101.1z" class="st1"/>
        <path d="M261.1,99.2c0.3,0.3,0.2,0.9-0.1,1.2c-0.3,0.6-1.2,0.4-1.8,0.3c-0.3-0.3-0.6-0.6-0.5-1.1
		c0.2-0.4,0.5-0.6,0.9-0.8C260.2,98.7,260.6,98.9,261.1,99.2L261.1,99.2z" class="st1"/>
        <path d="M239.1,102.5c0.5,0.7,1.1,1.7,1.3,2.4c-0.1,0.2-0.4,0.1-0.5,0.1c-2.1-1.2-4.7-2.4-5.5-4.9
		c-0.2-0.2-0.7-0.5-0.6-1c1.6-0.3,3.1,0.9,4.2,1.7C238.4,101.5,238.8,101.9,239.1,102.5L239.1,102.5z" class="st1"/>
        <path d="M100.8,100.2c0.2,0.5-0.2,1-0.5,1.2c-0.7,0.1-1-0.1-1.4-0.5c-0.4-0.7,0.4-1.2,0.8-1.5
		C100.2,99.4,100.5,99.9,100.8,100.2L100.8,100.2z" class="st1"/>
        <path d="M246.7,101.6c0.1,0.4-0.4,0.6-0.6,0.9c-0.5,0.1-1,0.2-1.4-0.2c-0.1-0.3-0.4-0.8-0.1-1.1
		C245.3,100.3,246.2,101,246.7,101.6L246.7,101.6z" class="st1"/>
        <path d="M261.7,102.5c0.2,0.7-0.4,1.2-0.8,1.5c-0.6,0.2-1.1-0.2-1.5-0.5c-0.3-0.4-0.1-0.7,0-1.2c0.4-0.4,1-0.7,1.6-0.4
		C261.2,102,261.5,102.2,261.7,102.5L261.7,102.5z" class="st1"/>
        <path d="M219.9,110.9c0,0.7-1.3,0.5-1.9,1.1c-1.9,1-4.1,1-6.4,0.9v-0.4C213.8,110.7,216.9,110,219.9,110.9L219.9,110.9
		z" class="st1"/>
        <path d="M131.6,113.5c-0.1,0.5-0.4,0.9-0.9,1c-0.4,0-0.8-0.2-1-0.6c-0.2-0.7,0.4-1,0.8-1.3
		C131,112.6,131.5,113.1,131.6,113.5L131.6,113.5z" class="st1"/>
        <path d="M218.8,114.2c-0.1,0.5-0.3,1.2-0.9,1.4c-0.5,0.1-0.9-0.2-1.3-0.4c-0.3-0.2-0.1-0.7-0.2-1
		C216.8,113.1,218.4,113.1,218.8,114.2L218.8,114.2z" class="st1"/>
        <path d="M230.9,114.4c-1.5,1-3.2,2.1-5.2,2.1l-3.3-0.1l-0.3-0.2c2-2.4,5.6-2.4,8.8-2.2V114.4L230.9,114.4z" class="st1"/>
        <path d="M115,115.9c0,0.5-0.2,1-0.8,1.2c-0.6,0.1-1-0.1-1.3-0.5c-0.2-0.5,0-1.1,0.5-1.4
		C114.1,114.6,114.8,115.4,115,115.9L115,115.9z" class="st1"/>
        <path d="M118,116.5c0.2,0.3-0.1,0.5-0.2,0.8c-0.4,0.2-0.8,0.3-1.1,0c-0.4-0.2-0.5-0.7-0.4-1c0.2-0.4,0.5-0.3,0.7-0.5
		C117.4,115.9,117.9,116,118,116.5L118,116.5z" class="st1"/>
        <path d="M94.9,122.6c-0.6,0.7-1.6-0.2-2.2-0.5c-2.1-1.2-2.1-3.6-4.2-5c0.2-0.7,0.8,0.1,1.2-0.1
		c0.4,0.2,0.8,0.5,1.3,0.7C93,118.9,93.5,120.8,94.9,122.6L94.9,122.6z" class="st1"/>
        <path d="M271.2,99c-1-1.8-2.6-2.5-4.5-2.5c-1.6,0.1-2.7,1.2-3.4,2.5c-0.4,1.3,0.1,2.6,1.1,3.4c0.4,0.2,1,0.1,1.2-0.3
		c0.3-0.8-0.5-0.8-0.7-1.4c-0.2-0.9,0.1-1.6,0.7-2.1c0.6-0.6,1.6-0.3,2.4-0.3c0.7,0.5,1.5,0.9,1.8,1.8c0.4,1,0.4,2.2,0,3.2
		c-0.7,1.5-2.2,2.7-3.7,3c-5,0.7-60.1,0.5-60.1,0.5c-6.5,0.6-13.9-1.2-19.4,2.2c-2.5,1.2-3.8,4-4.5,6.5c-1.6,1.5-3.4,3.2-4.7,4.8
		l-0.2-0.2c0.3-1.5,1-2.7,1.3-4.2c0.9-1.2,0.9-2.9,1.6-4.2c2.3-3.7,4.5-7.5,8-10.1c1.5-2,4.2-1.6,6.5-1.6c2.5,1.2,5.4,1.5,8.4,1.2
		c0.1-0.1,0.2-0.2,0.2-0.4c-0.8-0.8-2.2-1.1-3.2-1.9c-2.4-1.2-4.7,0.4-7.3,0.2c-0.1-0.1-0.2-0.2-0.2-0.4c2.3-1.7,4.9-2.9,7.5-4
		c2.1-1.2,4.4-1.8,6.6-2.6c0.9,0,1.8-0.8,2.6-0.2l3.2-0.9c0.1,0.1,0.2,0.2,0.5,0.2c2.7-0.9,6.2-0.1,9.3-0.1l0.4,0.4l2.9,0.7
		c1.1,0.1,1.6,1.4,2.7,1.5c0.6-0.9-0.7-1.2-1-1.8c1.3-0.3,2.8,0.1,4.1,0.6l-0.6,0.7c-0.4,0.7,0.2,1.2,0.7,1.4c0.4,0.1,0.7-0.2,1-0.3
		c0.8-0.5-0.1-1.1,0.2-1.6c4.5,0.8,8.8,1.9,12.9,3.7c1.1,0.4,2.2,1.2,3.5,1.2c-1.3-1.2-3-1.8-4.6-2.4c-1-0.6-2.5-0.7-3.3-1.5
		c0.2-0.3,0.6-0.2,0.8-0.4c2.1-0.2,3.8-1.8,5.3-3.4c0.1-0.4,0.8-0.2,0.7-0.7c-0.5-0.6-1.5,0.2-2.2,0.1c-2.5,0.5-3.6,3.5-6.2,4
		c-3.1-0.7-6.2-1.5-9.3-2.3c-1.5-0.2-3.1-0.4-4.5-1l-3.4-0.3h-6.2c-0.1-0.1-0.2-0.2-0.2-0.4c2.2-0.5,4.1-1.8,6.2-2.4l16.2-7.4
		c1.7-1.5,3.2-3.2,4.6-5c0.1-0.5-0.2-1-0.7-1.2c-0.4-0.2-0.9-0.1-1.2,0.2c-0.7,0.5,0,1.2,0,1.9c-0.7,1-1.9,1.8-2.8,2.4
		c-0.2-0.1-16.7,7.5-16.7,7.5c-2.4,1-4.8,2.2-7.4,2.7l-3.5,0.5c-0.2,0.7-0.8,1.2-1.5,1.4c-1,0.2-1.8,0.8-2.8,0.8
		c-7.9,3-16,6.3-22.3,12.5c0.4-0.7,0.5-1.6,0.6-2.6c-0.1-0.9-0.1-1.9-0.7-2.7c-0.1-0.3-0.6-1.3-0.4-1.7l-0.9,0.6
		c-0.5,1.3-1,3.8-0.5,5.2c0.2,1.1,1.1,2.4,0.2,3.4c-2.9,3.5-4.5,7.8-6.5,11.8c-0.7-0.1-1.1-0.8-1.4-1.5c2.1-2.6,3.7-5.5,4.3-8.9
		c0.4-0.3,0.1-1.1,0.5-1.5c-0.1-1,0.5-1.9,0.1-2.7c0.4-1.3-1.8-2.6-0.4-3.4l-1.1,0.5c-2.6,3.4,1.4,8.5-1.6,11.8v0.2
		c-0.8,1.1-1.3,2.2-2.4,2.9c-1.5-0.6-2-2.3-2.8-3.5c-1.3-1.3-1.3-3.9-0.5-5.7c0.5-1.8-0.4-3.3-0.5-4.9l-0.6-0.4
		c-1.5,1.9-2,4.9-0.8,7.1c0.6,1.1,0.7,2.6,1.6,3.5c0.5,1.8,1.6,2.9,2.6,4.5c0.2,0.6-0.4,0.7-0.7,1c-0.7-0.4-0.5-1.4-1.1-1.8
		c-2-4.3-4.6-7.7-7.7-11.2c-0.1-0.5-0.7-1-0.4-1.6c1.2-1.1,1.4-3.2,0.8-4.6c-0.1-0.3-0.5-0.7-0.4-1l-0.9-0.7c0.1,2.1-1.3,4-0.7,6.3
		v0.1c-6.2-4.7-13.1-8.9-20.1-12.2l-0.6,1.5c1.8,0.4,6.5,3.3,6.5,3.3c2.1,0.8,4.1,2.1,6,3.2c8.2,4.6,13.7,12.1,17.4,20.5
		c0.1,0.7,0.7,1.4,0.2,2.1c-1.3-2-3.1-3-4.6-4.6c-0.4-2.9-2.1-5.6-4.6-6.8c-0.9-1.3-2.8-1.5-4.4-1.9l-22-0.1
		c-17.9-0.2-34.2,0.5-52,0.2c-2.5-0.2-5.5-1.1-6.2-3.7c-0.5-0.9-0.5-2.5,0-3.4c0.7-1.2,1.9-1.5,3.1-1.6c1,0.1,1.6,1,2.1,1.7
		c0,0.8-0.7,1.5-1,2.2c0.1,0.2,0.3,0.7,0.7,0.5c0.8-0.3,1.4-1.2,1.6-1.9c0.1-0.4,0.2-1-0.2-1.3c-0.4-1.3-1.7-2.2-2.8-2.5
		c-1.5-0.1-3.1,0.3-4.1,1.4c-1.5,1.2-1.4,3.4-1,5.1c1,2.7,3.8,4.5,6.5,4.9l58.9,0.2c5.7,0.3,12.2-0.7,18,0.5
		c2.1,0.7,4.4,2.3,4.9,4.6c-0.1,0.1-0.2,0.1-0.4,0.1c-4.8-3.1-11.1-4.3-17.2-3.5c-2.4-0.1-4.6,0.8-6.8,1.4c-1.1,0.2-2.2-0.3-3-1
		c-2.2-2-6-1.8-8.8-1.1c0,0.2-0.1,0.4,0.1,0.4c3-0.2,4.7,2.3,7.4,2.6c0.6,0.1,1.1-0.5,1.6-0.1c-2.8,1.3-5.4,2.9-8.4,3.8
		c-0.9-0.2-1.4-1-2.1-1.5c-1.1-1.3-3.3-0.7-4.8-0.9c-0.5,0.1-1-0.2-1.4,0c0.5,1,1.6,1.5,2.6,2c1.5,0.7,3.3-0.1,4.7,0.9
		c-0.4,0.4-0.8,0.5-1.3,0.9c-2.8,1.1-5.2,3.7-8.3,3.5c-3.3,0.4-6.7-0.6-9-2.9c-1-2.4-3.4-3.7-6.1-3.5c-0.2,0.1-0.4,0.1-0.4,0.4
		c1.3,0.8,2.4,2.4,3.7,3.3c0.8,1,2.5,0,3.3,1.2c1.2,0.8,2.6,1.5,3.9,1.7c1,0.4,2.1,0.6,3.1,0.9l-0.4,0.2c-5.5,1.8-11.9,2-18,1.8
		c-1.8-0.1-3.6-0.6-5.4-0.5c0.3,0.4,0.9,0.7,1.5,0.9c-0.5,0.3-1,0.4-1.6,0.5c-0.7,0.2-1.6,0.2-2.3,0.6c-1-0.1-1.8,0.3-2.6,0.6
		c-1,1.1-2.2,2.3-3.4,2.8c0,0.2-0.1,0.6,0.2,0.6c1.1-0.5,2.6-0.1,3.8-0.6c2-0.2,3.1-2.4,4.7-3.3c1.7-1.3,4.1-1,6.2-0.7
		c1.2,0.3-0.1,0.8,0.2,1.6c0.5,0.4,0.9,0.9,1.6,0.7c0.1-0.1,0.2-0.2,0.4-0.3c0.4-0.5,0.3-1,0.1-1.5c0.8-0.5,2,0.1,2.9-0.3
		c2.3-0.1,4.6-0.5,6.8-0.6c0.4-0.1,0.8-0.4,1.1-0.1c-0.2,0.5-0.8,0.5-0.5,1.2c0.1,0.5,0.7,0.8,1.2,0.9c0.6-0.2,1.1-0.7,0.9-1.5
		c-0.1-0.4-0.6-0.5-0.9-0.7c1.3-0.6,2.7-0.8,4-1.4c0.9-0.2,1.8-0.5,2.5-0.9c0.8-0.1,1.5-0.8,2.2-0.5c-0.3,1-0.7,2-1.3,2.9
		c-1,3.2-1.7,7.5,0,10.6c0.2,0.1,0.2-0.1,0.4-0.1c-1.3-3.2-0.5-6.9,0.5-10c0.8-5.2,6.2-6.7,10-8.7l0.2,0.2c-1,2.7-2.5,5.2-2.3,8.5
		c0.1,0.5-0.2,1.1,0,1.5c1-0.5,1.7-1.8,2.2-2.8c0.4-2.7-1.1-6.2,1.6-8.2c5-1.9,9.6-4.5,15.4-4.6c0.2,0.2,0.6-0.1,0.7,0.2
		c-1.2,1.3-3,2.6-3.5,4.3c-1.9,2.7-1.9,7.3-1,10.5c0.5,1.9-1.1,2.9-1.9,4.4c-0.4,0.5-0.5,1.4-0.8,2l1.2,0.1c1-1.1,2-2.4,2.1-4
		c0.1,0.6,0.7,1.1,1.1,1.2c0.4-0.7-0.4-1.2-0.4-1.8c1-0.5,1.4,0.7,2.2,0.9c1.3,0.3,2.4,0.9,3.7,0.9l0.4-0.4c-1.3-2.1-4-2.4-6.3-2.6
		c-1.2-2-1.2-4.5-1.1-6.9c0.2-1.3,0.5-2.6,1.2-3.8c0.3-0.9,1.1-1.6,1.7-2.3c1.1-1,2.5-1.8,3.8-2.1h0.2c0,0.1,0.1,0.2,0.1,0.2
		c-1.6,1.3-1.8,3-2.8,4.6c-1,1.5-1.5,3.6-0.5,5.3c0.4,0.8,0.2,2,1,2.6c0.8-1.1,0.8-2.5,1.3-3.7c-0.2-2-1.4-3.9-0.2-5.8
		c0.6-1.5,1.9-2.1,3.3-2.7c3.3-0.3,6.2,1.4,9.1,2.7c0.6,0.4,1.6,0.8,1.8,1.6c-0.1,1.6-1,3.3-2.2,4.1c-1.6,1-4,1.1-5.5-0.1
		c-0.9-0.9-1.3-2.5-1-3.7c0.7-0.7,1.6-1.3,2.7-1c0.6,0.3,1.1,0.9,1.9,0.5c0.3-0.2,0.4-0.7,0.2-1c-0.7-0.4-0.9-1.3-1.8-1.4
		c-1.1-0.2-2.5-0.1-3.3,0.7c-1.3,1.1-1.8,2.7-1.4,4.3c0.4,1.9,1.9,3.4,3.7,3.9c2.8,0.7,5.7-0.2,7.4-2.6c0.7-0.8,0.9-1.6,1.3-2.6
		c2.9,1.8,5.1,4.9,6.2,8c0,1,0.3,2.1,0.1,3l2.1,0.2c-0.2-0.5,0-1,0.2-1.5c0.8-4,3.3-7.4,6.2-10c1-0.6,0.8,0.8,1,1.2
		c0.9,2.3,3,4,5.3,4.6c2.5,0.4,5-0.2,6.5-2.1c0.8-1.5,1.8-3.6,0.4-5.1c-0.8-1-2-1.6-3.3-1.6c-1.6,0-2.5,1.1-3.3,2.3
		c0,0.5-0.1,1,0.4,1.3c0.2,0,0.7,0.1,0.9-0.3c0.1-0.9,0.9-1.3,1.6-1.8c0.7-0.4,1.4,0,1.9,0.4c0.7,0.5,0.8,1.5,0.8,2.4
		c-0.1,1.2-0.9,2.4-2,2.9c-1.8,0.9-4.3,0.5-5.8-0.5c-0.7-0.8-1.1-1.7-1.7-2.7c-0.1-1-0.5-1.8,0-2.8c2.7-1.6,5.4-2.7,8.7-3
		c1.3,0.2,2.4,1.1,3.2,2c2.8,2.9-0.6,6.9,1.3,10.1c0.7-0.1,0.7-1.1,1-1.7c0.9-2.2-0.2-4.6-0.8-6.7c-0.7-1.3-1.1-2.5-2.3-3.6
		c0.3-0.1,0.4-0.1,0.7-0.1c1.3,0.9,2.7,1.8,3.7,3.2c1.8,2.9,2.7,6.3,2.4,10c-0.5,1.8-2.4,2.7-3.9,3.4c-0.6,0.5-1.3,1.2-1.6,2
		c0.7,0.4,1.8,0,2.5-0.3c1.1-0.4,1.8-1.9,2.6-2.6c0.1,0.1,0.1,0.2,0.1,0.4c0.1,0.7-0.3,1.6,0.3,1.8c0.3-0.9,0.4-2.1,0.5-3.1
		c0.8,0.9,0.9,1.9,1.1,3c0.5,1.1,1.5,2.6,2.9,2.7c0.4-0.5-0.1-1.1-0.2-1.6c-0.2-1.5-1.5-2.3-2.3-3.4c-2.1-2.9-1.1-7.5-2.8-10.8
		c-0.6-1.8-1.9-3-3.3-4.5l0.2-0.2c3-0.1,5.4,0.9,8.2,1.5c3.3,1.6,8.2,1.3,9.7,5.6c0.7,2.4,1.8,4.7,3.4,6.6l0.2-0.1
		c0.4-0.6,0.4-1.6,0-2.3c-0.4-3-3-3.8-4.4-6.3l0.2-0.2c1.5,0.4,3,0.8,4.4,1.4c4.8,1.3,8.2,6.1,8.8,11c0,3.9-0.7,7.1-2.2,10.4
		c-0.2,0.5-1,1-0.5,1.5c0.7-0.5,0.8-1.3,1.2-1.8c2-3.4,3-8,2-12.2c-0.1-0.8-1-1.4-0.5-2.2c0.3,0.4,0.7,0.4,1,0.5
		c0.4-0.2,0.9-0.2,1.2-0.7c0.1-0.4,0.3-0.8,0-1.1c-0.4-0.5-1.2-0.5-1.8-0.4c-0.3,0.4-0.7,0.9-0.7,1.3c-0.6-1-1.2-2.4-2.2-3.2
		l0.1-0.2c2.7,0.9,5.2,2.3,8,3c0.6,0.4,1.3,0.7,2.1,0.7c2.4,0.9,5,1.3,7.4,1.9c1.8-0.2,3.3,0.7,5.1,0.2v-0.1l-0.1,0.1
		c-0.7-0.9-2.1-0.1-2.9-0.7c-4.2-0.4-8.2-1.5-11.9-3c0.1-0.2,0.3-0.1,0.5-0.1c0.6-0.3,1-0.9,1-1.5c-0.3-0.4-0.8-0.7-1.4-0.7
		c-0.4,0.2-0.8,0.6-0.9,1c0.1,0.5,0.5,1,0.9,1.2c-0.1,0.1-0.4,0.1-0.5,0.1c-1.9-0.9-3.7-1.6-5.5-2.5c-0.7-0.1-1.2-0.7-1.9-0.8
		c-1.4-0.7-2.8-1.3-4.2-1.9c-3.9-2-8.2-3.1-12.3-4.6c-0.9-0.2-1.8-0.5-2.6-0.7c-1.5-0.4-3-0.8-4.5-1.2c-5.1-1.3-12-1.4-16.5,1.4
		c-0.7-0.2-1.1,0.9-1.5,0.2c1.3-3.4,5-4.4,8.3-4.6c24.3-0.2,47-0.4,70.9-0.8c2.8,0,5.5-1,7-3.5C271.8,103.1,272,100.6,271.2,99
		L271.2,99z M175,121.5c-0.2,0.7-0.7,1.3-0.7,2.1l-0.2,0.1c0.2-0.9-0.7-1.5-0.5-2.4c-0.5-0.7-0.5-1.6-0.9-2.4
		c-0.5-1,0.5-1.4,0.9-2.1c0.8,0.4,1.1,1.2,1.8,1.9C175.7,119.7,175,120.5,175,121.5L175,121.5z" class="st1"/>
        <path d="M240.7,117.6c0,0.2,0.4,0.2,0.2,0.5c-2.1,1.9-5.1,2.4-8.1,2.6c-0.2,0.1-0.5,0.2-0.8,0.2
		c-0.2-0.1-0.2-0.3-0.1-0.4C234.1,118.1,237.4,116.9,240.7,117.6L240.7,117.6z" class="st1"/>
        <path d="M230.9,118.6c0.2,0.9-0.3,1.3-1,1.6c-0.7-0.1-1-0.5-1.3-1c-0.2-0.5,0.2-0.7,0.4-1
		C229.5,117.8,230.7,117.8,230.9,118.6L230.9,118.6z" class="st1"/>
        <path d="M115.9,118.7c0.1,0.4,0.1,1-0.3,1.3c-0.2,0.3-0.8,0.4-1.1,0.3c-0.4-0.1-0.7-0.5-0.8-0.9c0-0.5,0.3-0.9,0.8-1.2
		C115,118.2,115.6,118.2,115.9,118.7L115.9,118.7z" class="st1"/>
        <path d="M105.1,122.7v0.4c-1.5,0.3-2.8-0.1-3.9-0.9c-0.8-1.2-1.8-2.4-3.2-3c0-0.2-0.4-0.4,0-0.5
		C101,118.6,102.8,121,105.1,122.7L105.1,122.7z" class="st1"/>
        <path d="M249.9,118.7c-1.4,2.1-2.6,4.6-5.1,5.5c-0.4,0-0.8,0.6-1.2,0.2c1-2.3,3-4.8,5.4-5.8
		C249.3,118.6,249.6,118.5,249.9,118.7L249.9,118.7z" class="st1"/>
        <path d="M119.4,119.4c0.1,0.7-0.4,0.8-0.8,1.2c-0.5,0.1-0.7-0.3-1-0.7c-0.2-0.6,0.3-0.9,0.6-1.2
		C118.6,118.6,119.2,119,119.4,119.4L119.4,119.4z" class="st1"/>
        <path d="M257.5,119.8c-0.5,0.8-0.3,2-0.8,2.8c-1.2,1.4-2.2,3-4.2,3.3c-0.3-0.6,0.4-1.2,0.7-1.8c0.8-1.8,2.1-3.9,4-4.7
		L257.5,119.8L257.5,119.8z" class="st1"/>
        <path d="M86.3,120.3c0.2,0.4,0.4,0.9,0,1.3c-0.4,0.3-0.9,0.4-1.4,0.2c-0.5-0.3-0.7-1-0.5-1.5
		C84.8,119.9,85.9,119.6,86.3,120.3L86.3,120.3z" class="st1"/>
        <path d="M82.9,121c0.1,0.3,0.2,0.5,0.2,0.9c-0.2,0.3-0.5,0.7-0.8,0.7c-0.7,0.1-1.1-0.2-1.4-0.8c-0.1-0.5,0.1-1,0.6-1.3
		C82,120.3,82.6,120.6,82.9,121L82.9,121z" class="st1"/>
        <path d="M90,121.4c0.1,0.5,0.2,1.3-0.5,1.5c-0.8,0.4-1.3-0.2-1.8-0.7c0-0.5,0.3-1,0.7-1.2
		C89.1,120.9,89.6,120.9,90,121.4L90,121.4z" class="st1"/>
        <path d="M99.9,122.2c-0.1,0.4,0.1,1-0.4,1.2c-0.3,0.3-0.8,0.2-1.1,0.1c-0.1-0.4-0.8-0.7-0.4-1.1
		c0.2-0.3,0.5-0.5,0.8-0.7C99.2,121.9,99.7,121.7,99.9,122.2L99.9,122.2z" class="st1"/>
        <path d="M263.3,122.6c-0.2,0.4-0.4,1-0.9,1c-0.5-0.1-1.1-0.1-1.4-0.7c-0.2-0.7,0.3-1,0.8-1.2
		C262.4,121.7,263.2,122,263.3,122.6L263.3,122.6z" class="st1"/>
        <path d="M252.2,122.9c0.1,0.5-0.5,0.9-0.7,1c-0.8,0.4-1.6-0.2-1.9-0.9c0.1-0.5,0.5-0.9,1-1.1
		C251.4,121.9,251.9,122.3,252.2,122.9L252.2,122.9z" class="st1"/>
        <path d="M259.7,122.8c0,0.4-0.2,0.9-0.5,1c-0.5,0.2-1.1,0.1-1.5-0.2c-0.5-0.5-0.1-0.9,0.2-1.3
		C258.5,122,259.5,122.1,259.7,122.8L259.7,122.8z" class="st1"/>
        <path d="M84.8,123.8c0.1,0.7-0.1,1.3-0.7,1.5c-0.5,0-1.1-0.3-1.3-0.9c-0.1-0.5,0.1-1.1,0.6-1.3
		C83.9,123.1,84.4,123.4,84.8,123.8L84.8,123.8z" class="st1"/>
        <path d="M249.2,124.5c0.2,0.7-0.2,1.3-0.8,1.6c-0.5,0.1-0.8-0.1-1.1-0.4c-0.2-0.3-0.5-1-0.1-1.3
		C247.6,123.5,248.8,123.8,249.2,124.5L249.2,124.5z" class="st1"/>
        <path d="M117.3,125.2c0.2,0.7-0.5,0.8-0.7,1.2c-0.2,0.1-0.7,0.2-0.9-0.1c-0.3-0.4-0.7-0.7-0.5-1.3
		c0.3-0.2,0.4-0.5,0.8-0.6C116.7,124.2,116.9,124.8,117.3,125.2L117.3,125.2z" class="st1"/>
        <path d="M262.2,125.6c0.1,0.4-0.2,0.6-0.3,0.9c-0.4,0.3-1,0.4-1.4,0.2c-0.5-0.3-0.5-0.8-0.5-1.3
		c0.4-0.2,0.4-0.5,0.8-0.7C261.4,124.8,262,125,262.2,125.6L262.2,125.6z" class="st1"/>
        <path d="M258.4,125.8c0.2,0.7-0.4,1.1-0.9,1.3c-0.2,0.1-0.6-0.1-0.7,0.2c1.6,0.8,2.5,2.1,3.8,3.2v0.5
		c-2.2-0.1-4.4-0.6-6-2.3c-0.4-0.3-1.1-0.3-1.6-0.7c0.8-0.8,2.2-0.5,3.3-0.5c0.8-0.9-0.9-1.5,0.1-2.2c0.4-0.1,0.6-0.4,1.1-0.3
		C258,125.1,258.2,125.4,258.4,125.8L258.4,125.8z" class="st1"/>
        <path d="M233.7,125.9c0.1,0.3-0.2,0.7-0.3,1c-0.4,0.4-0.9,0.4-1.3,0.2c-0.3-0.4-0.8-0.8-0.6-1.4
		C232,124.8,233.5,124.9,233.7,125.9L233.7,125.9z" class="st1"/>
        <path d="M98.4,128c-0.2,0.5-0.4,0.9-1,1c-0.5-0.1-0.9-0.2-1.1-0.7c-0.1-0.4,0.2-0.7,0.3-1
		C97.3,126.7,98.5,127.1,98.4,128L98.4,128z" class="st1"/>
        <path d="M103.3,127.2c0,0.9-0.9,1.3-1.2,2.2c-0.9,2-2.5,3.8-4.8,4c-0.2-0.5,0.8-1.2,1-1.8c1-2.1,2.9-3.2,4.7-4.4H103.3
		L103.3,127.2z" class="st1"/>
        <path d="M232.3,128.1c0.1,0.7-0.5,1.2-1,1.4c-0.5,0.2-1-0.2-1.3-0.5c-0.5-0.5-0.2-1,0.1-1.5
		C230.7,126.8,231.8,127.4,232.3,128.1L232.3,128.1z" class="st1"/>
        <path d="M236,128.5c-0.1,0.7-0.5,1.2-1.1,1.3c-0.1-0.2-0.4-0.1-0.6-0.1c-0.4-0.2-0.8-0.6-0.8-1.1
		c0.3-0.3,0.4-0.8,0.8-0.9C234.9,127.7,235.8,127.7,236,128.5L236,128.5z" class="st1"/>
        <path d="M112.7,128.4c0.1,0.7-0.4,1-0.9,1.3c-0.5,0.1-0.9-0.3-1.1-0.7c-0.1-0.5,0.4-0.9,0.7-1.2
		C112.1,127.5,112.3,128.1,112.7,128.4L112.7,128.4z" class="st1"/>
        <path d="M116.9,128.7c-0.2,0.5-0.5,0.9-1.2,1c-0.4-0.1-0.9-0.2-1.1-0.7c-0.1-0.6,0.4-0.9,0.8-1.2
		C116.1,127.7,116.8,128,116.9,128.7L116.9,128.7z" class="st1"/>
        <path d="M249,132.9c0.3,0.2,0.8,0.5,0.7,1c-1,0.4-1.8-0.7-2.7-0.9c-1.5-1.5-2.5-3-3.1-4.9c0.5-0.5,1.1,0.1,1.6,0.3
		C247,129.6,248.3,131.2,249,132.9L249,132.9z" class="st1"/>
        <path d="M251.3,128.7c0.2,0.4,0.1,0.9-0.1,1.3c-0.4,0.6-1.1,0.5-1.7,0.4c-0.3-0.4-0.8-0.9-0.5-1.4
		c0.2-0.5,0.7-0.6,1.1-0.8C250.5,128.1,250.8,128.5,251.3,128.7L251.3,128.7z" class="st1"/>
        <path d="M122.5,130.2c0.1,0.5,0.2,1.2-0.4,1.5c-0.5,0.1-1.3-0.1-1.5-0.7c-0.3-0.7,0.4-0.9,0.7-1.2
		C121.8,129.7,122.1,129.9,122.5,130.2L122.5,130.2z" class="st1"/>
        <path d="M235.8,134.2c0.8,1.2,1.4,2.7,1.6,4.3c-0.2,0.4,0.3,0.9-0.1,1.2h-0.2c-2.7-1.9-3.3-4.7-4.4-7.4
		c-0.2-0.1-0.3-0.4-0.2-0.6c0.6-0.5,1,0.5,1.6,0.7L235.8,134.2L235.8,134.2z" class="st1"/>
        <path d="M130.3,132.1c-0.1,0.1,0,0.1,0.1,0.1c-2.4,1.7-5.8,2.7-8.6,1.1c-0.1-0.2,0.1-0.5,0.3-0.5
		c1.8-0.5,3.4-1.4,5.3-1.2L130.3,132.1L130.3,132.1z" class="st1"/>
        <path d="M116.5,132.4c-2.1,1.3-3.9,3.8-6.5,4.4c-0.5,0.2-0.8,0.9-1.4,0.5c1.1-3.3,4.7-5.1,7.9-5.4V132.4L116.5,132.4z" class="st1"/>
        <path d="M232.3,135.2c0.2,0.5,0,1.2-0.5,1.3c-0.3,0.3-0.9,0.3-1.1,0c-0.5-0.2-0.5-0.8-0.5-1.2c0.2-0.4,0.6-0.5,0.9-0.7
		C231.5,134.7,232,134.7,232.3,135.2L232.3,135.2z" class="st1"/>
        <path d="M227.2,135.5c-0.4,0.9-1.4,1.3-2.2,1.6c-2.1,0.7-3.9-0.2-5.7-0.7c0.1-0.5,0.7-0.3,1-0.6c2-0.4,4.1-0.9,6.2-0.3
		C226.6,135.3,227.1,135.2,227.2,135.5L227.2,135.5z" class="st1"/>
        <path d="M116.5,137.3c-0.2,0.2-0.2,0.8-0.7,1c-0.4,0.2-0.8,0-1.2-0.2c-0.1-0.4-0.5-0.7-0.2-1.1c0.1-0.4,0.6-0.5,1-0.7
		C115.9,136.3,116.4,136.6,116.5,137.3L116.5,137.3z" class="st1"/>
        <path d="M120.1,137.8c-0.2,0.4-0.4,0.9-0.8,1.2c-0.5,0.1-0.8-0.1-1.2-0.4c-0.2-0.4-0.4-0.8-0.2-1.2
		c0.1-0.3,0.5-0.4,0.8-0.5C119.3,136.7,119.9,137.3,120.1,137.8L120.1,137.8z" class="st1"/>
        <path d="M231.1,138.4c0.1,0.5-0.2,0.8-0.4,1.2c-0.3,0.4-0.9,0.5-1.3,0.2c-0.4-0.1-0.5-0.5-0.7-0.9
		c-0.4-0.5,0.2-0.8,0.4-1.2C229.7,137.2,230.8,137.5,231.1,138.4L231.1,138.4z" class="st1"/>
        <path d="M233.8,138.3c0.1,0.3,0.2,0.6,0.1,0.9c-0.4,0.3-0.6,1.1-1.3,0.8c-0.4,0.1-0.5-0.4-0.7-0.5
		c-0.2-0.6-0.1-1.5,0.7-1.6C233.1,137.6,233.5,138.1,233.8,138.3L233.8,138.3z" class="st1"/>
        <path d="M117.9,140.1c0.1,0.7-0.1,1.3-0.6,1.6c-0.7,0.1-1.5,0.1-1.8-0.7c-0.1-0.6,0-1.4,0.7-1.8
		C116.9,139.2,117.6,139.3,117.9,140.1L117.9,140.1z" class="st1"/>
        <path d="M121.4,139.8c-0.1,1.7-0.5,3.8-2.2,4.8c-1,0.2-1.9,1.1-2.9,0.5v-0.3C117.6,142.9,119.9,141.5,121.4,139.8
		L121.4,139.8z" class="st1"/>
        <path d="M221.6,141.2c0.2,0.4-0.2,0.7-0.4,1c-0.4,0.4-1,0.2-1.5,0.1c-0.4-0.2-0.5-0.8-0.3-1.2c0.1-0.4,0.5-0.5,0.8-0.7
		C220.8,140.3,221.3,140.8,221.6,141.2L221.6,141.2z" class="st1"/>
        <path d="M127.4,144c0.8,1.4,0.4,3.3,0.8,4.8c-1,0.1-1.5-1-2.1-1.6c-1.3-1.8-1.1-4.3-1.8-6.4c0.1-0.2,0.3-0.2,0.4-0.1
		c0.9,0.6,1.6,1.8,2.3,2.6C127,143.6,127.5,143.6,127.4,144L127.4,144z" class="st1"/>
        <path d="M224.6,141.7c0,0.5-0.5,0.6-0.8,0.9c-0.4-0.1-0.8-0.2-1.1-0.5c-0.2-0.6,0.3-0.8,0.6-1.1
		C223.8,140.7,224.4,141,224.6,141.7L224.6,141.7z" class="st1"/>
        <path d="M231.8,147.1c0,0.2-0.1,0.5-0.4,0.4h-0.2c-1.8-1.6-3.5-3.4-3.3-5.8l0.4-0.1C230,143.1,231.8,144.6,231.8,147.1
		L231.8,147.1z" class="st1"/>
        <path d="M227.3,145.2c0.1,0.5-0.2,0.9-0.5,1.2c-0.7,0.2-1.7,0.1-1.8-0.8c-0.1-0.6,0.6-0.9,0.9-1.2
		C226.6,144.1,227.1,144.6,227.3,145.2L227.3,145.2z" class="st1"/>
        <path d="M223.3,146.5c-0.8,2.3-3.1,3.4-4.7,5.1c-0.3-0.2-0.2-0.7-0.1-0.9c0.6-2.3,2.4-4.6,4.7-5.5
		C224.1,145.3,223.1,146,223.3,146.5L223.3,146.5z" class="st1"/>
        <path d="M227.8,148.3c0,0.5-0.5,0.8-0.8,1.1c-0.5-0.1-1-0.2-1.3-0.7c-0.1-0.6,0.4-0.8,0.8-1.1
		C227.1,147.5,227.6,147.8,227.8,148.3L227.8,148.3z" class="st1"/>
        <path d="M182.8,37.7c0.8,0,1.5,0.7,1.5,1.5c0,0.8-0.7,1.5-1.5,1.5h-17.9c-0.8,0-1.5-0.7-1.5-1.5c0-0.8,0.7-1.5,1.5-1.5
		H182.8L182.8,37.7z M170.1,40.3c1.8,0,0.1-2.1-0.8-2.1h-1.8c-1.8,0-0.1,2.1,0.8,2.1H170.1L170.1,40.3z M177.5,40.3
		c1.8,0,0.1-2.1-0.8-2.1h-1.8c-1.8,0-0.1,2.1,0.8,2.1H177.5L177.5,40.3z M182.9,38.1h-0.7c-1.8,0-0.3,2.1,0.7,2.1
		C184.1,40.3,184.2,38.1,182.9,38.1L182.9,38.1z" class="st1"/>
        <path d="M181.2,58.2l3.4,1.3l3.4-1.3l-1.3,5l2.7-0.6l-0.9,3.1l0.9,2.9l-2.4-0.6l1,5.4l-3.4-1.3l-3.4,1.3l1.4-5.4
		l-2.7,0.8l0.7-3.1l-0.7-2.9l2.6,0.4L181.2,58.2L181.2,58.2z M186.3,67.3c0.8,0,0.8-1.1,0.8-2c0-2.1-1.6,0-2.5-2
		c-0.6,1.7-2.3,0.1-2.3,1.9c0,1.2,0,2,1.2,2H186.3L186.3,67.3z M182.9,65.5c0,0.8,1.1,0.3,1.9,0.3c0.8,0,1.9,0.5,1.9-0.3
		c0-1.1-1.1-0.7-1.9-0.7C184,64.7,182.9,64.3,182.9,65.5L182.9,65.5z" class="st1"/>
        <polygon points="173.2,65.7 173.2,65 172.7,64.9 173.1,64.4 172.8,63.9 173.4,64 173.8,63.4 174.1,64 174.7,63.9 
		174.4,64.4 174.9,64.9 174.3,65 174.3,65.7 173.8,65.3 173.2,65.7 	" class="st1"/>
        <polygon points="170.6,69.1 170.6,68.5 170,68.3 170.4,67.9 170.2,67.4 170.8,67.4 171.1,66.8 171.5,67.4 172.1,67.4 
		171.8,67.9 172.2,68.3 171.7,68.5 171.7,69.1 171.1,68.7 170.6,69.1 	" class="st1"/>
        <polygon points="175.1,68.7 175.1,68 174.5,67.9 175,67.4 174.7,66.9 175.3,67 175.6,66.4 176,67 176.6,66.9 
		176.3,67.4 176.7,67.9 176.2,68 176.2,68.7 175.6,68.2 175.1,68.7 	" class="st1"/>
        <polygon points="175.6,71.2 175.6,70.9 175.3,70.8 175.5,70.5 175.4,70.2 175.7,70.3 175.9,69.9 176.1,70.3 
		176.5,70.2 176.3,70.5 176.5,70.8 176.2,70.9 176.2,71.2 175.9,71 175.6,71.2 	" class="st1"/>
        <polygon points="171.4,74.1 171.4,73 170.4,72.9 171.2,72.1 170.7,71.2 171.7,71.3 172.3,70.2 172.9,71.3 174,71.2 
		173.5,72.1 174.3,72.9 173.3,73 173.3,74.1 172.3,73.4 171.4,74.1 	" class="st1"/>
        <polygon points="173.6,16.7 175.7,21.9 181.1,20.3 178.3,25.3 182.9,28.5 177.4,29.4 177.7,35.1 173.6,31.3 
		169.4,35.1 169.7,29.4 164.2,28.5 168.8,25.3 166,20.3 171.4,21.9 173.6,16.7 	" class="st1"/>
        <path d="M154,134.2c-0.6,0.2-0.9,0.4-0.7,1.1l0.8,3.2c0.1,0.6,0.2,1.5-0.2,2.1c-0.5,0.7-1.5,1.1-2.2,1.3
		c-0.5,0.1-1.7,0.3-2.6,0c-0.6-0.3-1-0.5-1.3-1.6l-0.8-3.4c-0.2-0.8-0.5-0.8-1.2-0.7l-0.1-0.3l4.1-1l0.1,0.3
		c-0.8,0.2-1.2,0.3-0.9,1.2l0.8,3.4c0.1,0.6,0.5,2,2.2,1.5c2.1-0.5,1.8-2.1,1.6-2.7l-0.7-3.1c-0.1-0.6-0.4-0.9-1.4-0.7l-0.1-0.3
		l2.6-0.6L154,134.2L154,134.2z" class="st1"/>
        <path d="M160,134.8c-0.4-0.7-1.3-1.7-2.8-1.3c-0.6,0.1-1.2,0.6-1.1,1.2c0.1,0.5,0.4,0.7,1.5,0.9l1.9,0.3
		c0.4,0.1,1.5,0.5,1.7,1.6c0.2,0.9-0.3,2.3-2.5,2.8c-1.1,0.3-1.8,0-2.1,0.1c-0.3,0.1-0.3,0.3-0.3,0.4l-0.4,0.1l-0.5-2.5l0.3-0.1
		c0.5,1,1.4,2,2.9,1.6c1.4-0.3,1.3-1.3,1.3-1.5c-0.1-0.7-0.8-0.8-1.6-0.9l-0.9-0.1c-2.2-0.4-2.4-1.2-2.5-1.7
		c-0.1-0.6-0.1-2.1,2.2-2.6c1-0.2,1.6,0,2-0.1c0.3-0.1,0.3-0.2,0.3-0.4l0.4-0.1l0.5,2.2L160,134.8L160,134.8z" class="st1"/>
        <path d="M168,138.8l-4.4,0.4l0-0.3c0.9-0.1,1.2-0.2,1.1-1.1l-0.5-5.4c-0.9,0.1-2.1,0.3-2.2,2l-0.4,0l-0.2-2.1l7.4-0.7
		l0.2,2.1l-0.4,0c-0.4-1.6-1.7-1.6-2.5-1.5l0.5,5.4c0.1,0.9,0.4,0.9,1.3,0.8L168,138.8L168,138.8z" class="st1"/>
        <path d="M178.3,138.8l-2.5,0l-2.5-3.3l-0.3,0l0,2c0,0.8,0.3,0.9,1.1,1l0,0.3l-4.2-0.1l0-0.3c0.8-0.1,1.1-0.1,1.1-0.9
		l0.1-4.6c0-0.9-0.4-0.9-1.1-1l0-0.3l4,0.1c0.9,0,3.5,0.2,3.4,1.9c0,1.3-1.3,1.6-2,1.7l2.4,3c0.2,0.2,0.4,0.2,0.5,0.2L178.3,138.8
		L178.3,138.8z M172.9,135.2c1.6,0,2.3-0.2,2.3-1.5c0-1-0.5-1.5-1.5-1.5c-0.7,0-0.7,0.1-0.8,0.4L172.9,135.2L172.9,135.2z" class="st1"/>
        <path d="M186.4,139.9l-4-0.5l0-0.3c0.8,0,1,0.1,1-0.3c0-0.3-0.3-1.1-0.4-1.4l-2.8-0.3c-0.4,0.7-0.7,1.1-0.7,1.3
		c0,0.4,0.5,0.5,0.9,0.6l0,0.3l-2.5-0.3l0-0.3c0.7,0,0.9-0.3,1.3-1.1l3.4-5.3l0.3,0l2.1,5.7c0.4,1.2,0.6,1.5,1.2,1.6L186.4,139.9
		L186.4,139.9z M183,137l-0.9-2.7l-1.5,2.4L183,137L183,137z" class="st1"/>
        <path d="M193.6,141.3l-7-1.3l0-0.3c0.7,0.1,1.1,0.1,1.2-0.5l0.9-4.9c0.1-0.7-0.4-0.8-0.9-0.9l0-0.3l4.2,0.8l0,0.3
		c-0.9-0.1-1.2-0.2-1.4,0.7l-0.9,4.8c-0.1,0.5,0.2,0.6,1,0.8c1.8,0.3,2.7-0.4,3.4-1.4l0.4,0.1L193.6,141.3L193.6,141.3z" class="st1"/>
        <path d="M198.2,142.4l-4.2-0.9l0.1-0.3c0.7,0.1,1.1,0.1,1.3-0.5l1-4.9c0.1-0.7-0.4-0.8-1-1l0.1-0.3l4.2,0.9l-0.1,0.3
		c-0.6-0.1-1.2-0.2-1.3,0.5l-1,4.9c-0.1,0.6,0.3,0.8,1,1L198.2,142.4L198.2,142.4z" class="st1"/>
        <path d="M206.8,143.5l-4-0.4l0-0.3c0.8,0,1,0,1-0.3c0-0.3-0.3-1.1-0.4-1.4l-2.8-0.3c-0.4,0.7-0.7,1.1-0.7,1.3
		c0,0.4,0.5,0.5,1,0.5l0,0.3l-2.5-0.3l0-0.3c0.7,0,0.9-0.3,1.3-1.1l3.3-5.4l0.3,0l2.2,5.7c0.4,1.2,0.6,1.5,1.2,1.6L206.8,143.5
		L206.8,143.5z M203.3,140.7l-1-2.6l-1.4,2.4L203.3,140.7L203.3,140.7z" class="st1"/>
        <path d="M175.3,59.9c0-2.5-1.4-0.2-2.2-2.3c-0.6,1.8-2.2,0.3-2.2,2.2c0,0.7,0.2,1.2,0.5,1.4V62c0,0.2,0.2,0.3,0.3,0.3
		h2.6c0.2,0,0.3-0.2,0.3-0.3v-0.8C175,60.9,175.3,60.5,175.3,59.9L175.3,59.9z M173.1,60.4c-0.7,0-1.7,0.5-1.7-0.4
		c0-1.2,0.8-0.9,1.6-0.9c0.7,0,1.9-0.3,1.9,0.9C174.8,60.9,173.8,60.4,173.1,60.4L173.1,60.4z" class="st1"/>
        <path d="M196.9,90.4c0.6,0,1.1-0.4,1.1-1c0-0.6-0.5-1-1.1-1c-0.6,0-1.1,0.5-1.1,1C195.8,90,196.3,90.4,196.9,90.4
		L196.9,90.4z" class="st1"/>
        <path d="M191.5,53.6c0,0-0.5,0.9-0.5,1.1c0,0.3,0.2,0.6,0.5,0.6c0.3,0,0.5-0.3,0.5-0.6
		C192.1,54.6,191.5,53.6,191.5,53.6L191.5,53.6z" class="st1"/>
        <path d="M155,53.6c0,0-0.5,0.9-0.5,1.1c0,0.3,0.2,0.6,0.5,0.6c0.3,0,0.5-0.3,0.5-0.6C155.6,54.6,155,53.6,155,53.6
		L155,53.6z" class="st1"/>
        <path d="M164.1,53.6c0,0-0.5,0.9-0.5,1.1c0,0.3,0.2,0.6,0.5,0.6c0.3,0,0.5-0.3,0.5-0.6
		C164.7,54.6,164.1,53.6,164.1,53.6L164.1,53.6z" class="st1"/>
        <path d="M173.3,53.6c0,0-0.5,0.9-0.5,1.1c0,0.3,0.2,0.6,0.5,0.6c0.3,0,0.5-0.3,0.5-0.6
		C173.8,54.6,173.3,53.6,173.3,53.6L173.3,53.6z" class="st1"/>
        <path d="M182.4,53.6c0,0-0.5,0.9-0.5,1.1c0,0.3,0.2,0.6,0.5,0.6c0.3,0,0.5-0.3,0.5-0.6C183,54.6,182.4,53.6,182.4,53.6
		L182.4,53.6z" class="st1"/>
        <path d="M155,66.1c0,0,0.5,0.9,0.5,1.1c0,0.3-0.2,0.6-0.5,0.6c-0.3,0-0.5-0.3-0.5-0.6C154.5,67.2,155,66.1,155,66.1
		L155,66.1z" class="st1"/>
        <path d="M155,78.3c0,0,0.5,0.9,0.5,1.1c0,0.3-0.2,0.6-0.5,0.6c-0.3,0-0.5-0.3-0.5-0.6C154.5,79.4,155,78.3,155,78.3
		L155,78.3z" class="st1"/>
        <path d="M156.5,88c0,0,0.5,0.9,0.5,1.1c0,0.3-0.2,0.6-0.5,0.6c-0.3,0-0.5-0.3-0.5-0.6C155.9,89,156.5,88,156.5,88
		L156.5,88z" class="st1"/>
        <path d="M164.1,93.1c0,0,0.5,0.9,0.5,1.1c0,0.3-0.2,0.6-0.5,0.6c-0.3,0-0.5-0.3-0.5-0.6
		C163.6,94.2,164.1,93.1,164.1,93.1L164.1,93.1z" class="st1"/>
        <path d="M192,66.1c0,0-0.5,0.9-0.5,1.1c0,0.3,0.2,0.6,0.5,0.6c0.3,0,0.5-0.3,0.5-0.6C192.6,67.2,192,66.1,192,66.1
		L192,66.1z" class="st1"/>
        <path d="M192,78.3c0,0-0.5,0.9-0.5,1.1c0,0.3,0.2,0.6,0.5,0.6c0.3,0,0.5-0.3,0.5-0.6C192.6,79.4,192,78.3,192,78.3
		L192,78.3z" class="st1"/>
        <path d="M190.5,88c0,0-0.5,0.9-0.5,1.1c0,0.3,0.2,0.6,0.5,0.6c0.3,0,0.5-0.3,0.5-0.6C191.1,89,190.5,88,190.5,88
		L190.5,88z" class="st1"/>
        <path d="M182.9,93.1c0,0-0.5,0.9-0.5,1.1c0,0.3,0.2,0.6,0.5,0.6c0.3,0,0.5-0.3,0.5-0.6
		C183.4,94.2,182.9,93.1,182.9,93.1L182.9,93.1z" class="st1"/>
        <path d="M173.6,98.5c0,0-0.5,0.9-0.5,1.1c0,0.3,0.2,0.6,0.5,0.6c0.3,0,0.5-0.3,0.5-0.6
		C174.1,99.6,173.6,98.5,173.6,98.5L173.6,98.5z" class="st1"/>
        <path d="M188.4,80.4c0.1,0.2,0.4,0.2,0.8,0.1l0.3-1c0-0.1-0.4-0.5-0.7-0.4c-1,0.2-2,0.3-2.6,1.3c0,0.6,0.5,1.2,0.9,1.5
		c0.3-0.1,0.4,0.2,0.6,0.4c0.1,0.3-0.1,0.5-0.4,0.5c-0.7-0.7-1.9,0.2-2.4-0.6c0.2-0.9,0.7-1.9-0.1-2.7c0.1-0.2,0.3-0.3,0.2-0.5
		c-0.3-0.8-1.1-0.2-1.7-0.2c-0.9-0.1-1.6,0.3-2.1,1c0.1,0.3,0.2,0.6,0.5,0.9c0.2-0.1,0.3,0,0.4,0.2l-0.6,0.3
		c0.2,0.2,0.2,0.4,0.2,0.6c-0.4,0.2-0.8-0.4-1-0.7c0-0.5,0.1-1.3-0.6-1.4c-0.1,0-0.5,0.2-0.5,0.2c-0.1,0.2-0.2,0.5-0.2,1
		c0,0.4,0.2,1,0.2,1s1.8,1.3,2.2,2.1c-0.5,1-0.5,2.5-1.7,3.1c-0.3,0.2-0.3,0.6-0.3,0.9l0.3,0.2c0.7-0.4,2.2-0.5,2.1-1.8
		c0.3-0.5,0.6-1.1,1.1-1.5c0.6-0.1,1.1,0.2,1.3,0.6c-0.2,0.9-0.7,1.4-1.6,1.7c-0.1,0.1-0.1,0.3-0.1,0.5c0.2,0.4,0.9,0.2,1.2,0.2
		c1-0.6,1.4-1.8,2.2-2.1c0.1,0.6-1.1,0.8-0.3,1.3c0.5-0.1,1.2,0.1,1.6-0.6c-0.4-1,1.4-1.4,0.3-2.3c0-0.9,0.9-1.2,0.9-2.1
		c-0.3-0.9-1.4-0.9-1.7-1.8C187.6,80.1,188.1,80.2,188.4,80.4L188.4,80.4z" class="st1"/>
        <path d="M146.4,90.9c0.6,0,1.1-0.5,1.1-1c0-0.6-0.5-1-1.1-1c-0.6,0-1.1,0.4-1.1,1C145.3,90.4,145.8,90.9,146.4,90.9
		L146.4,90.9z" class="st1"/>
        <path d="M87.2,125.5c0.6,0,1.1-0.5,1.1-1.1c0-0.6-0.5-1.1-1.1-1.1c-0.6,0-1.1,0.5-1.1,1.1
		C86.1,125,86.6,125.5,87.2,125.5L87.2,125.5z" class="st1"/>
        <path d="M124.9,133.9L124.9,133.9l-0.1-0.1h0v0.1c0,0,0,0,0,0v0h-0.1v0c0,0,0,0,0,0v-0.1c0,0,0,0,0,0v0h0.1
		c0,0,0.1,0,0.1,0.1C124.9,133.8,124.8,133.8,124.9,133.9L124.9,133.9C124.9,133.9,124.9,133.9,124.9,133.9L124.9,133.9L124.9,133.9
		z M124.7,133.8C124.8,133.8,124.8,133.8,124.7,133.8C124.8,133.7,124.8,133.7,124.7,133.8C124.7,133.7,124.7,133.7,124.7,133.8
		L124.7,133.8L124.7,133.8z" class="st1"/>
        <path d="M125.1,133.8C125,133.7,125,133.7,125.1,133.8c-0.1-0.1-0.1,0-0.1,0C124.9,133.8,125,133.8,125.1,133.8
		L125.1,133.8C125,133.8,125.1,133.8,125.1,133.8c0,0.1,0,0.1-0.1,0.1c0,0-0.1,0-0.1,0c0,0,0,0,0,0h0v-0.1h0c0,0,0,0.1,0.1,0.1
		c0,0,0,0,0,0C125,133.9,125,133.8,125.1,133.8L125.1,133.8c-0.1,0-0.1,0-0.1,0C124.9,133.7,124.9,133.7,125.1,133.8
		C125,133.7,125,133.7,125.1,133.8C125.1,133.7,125.1,133.7,125.1,133.8L125.1,133.8L125.1,133.8L125.1,133.8L125.1,133.8z" class="st1"/>
        <path d="M125.4,133.7C125.4,133.7,125.4,133.7,125.4,133.7l-0.1,0.2h0l-0.1-0.1h0l-0.1,0.1h0l-0.1-0.2c0,0,0,0,0,0v0
		h0.1v0c0,0,0,0,0,0c0,0,0,0,0,0l0,0.1h0l0-0.1l0,0c0,0,0,0,0,0v0h0.1v0c0,0,0,0,0,0c0,0,0,0,0,0l0,0.1h0L125.4,133.7
		C125.4,133.7,125.4,133.7,125.4,133.7C125.4,133.7,125.4,133.7,125.4,133.7L125.4,133.7L125.4,133.7L125.4,133.7L125.4,133.7z" class="st1"/>
        <path d="M125.4,133.9C125.5,133.9,125.5,133.9,125.4,133.9C125.5,133.8,125.5,133.8,125.4,133.9
		C125.5,133.8,125.5,133.8,125.4,133.9c0-0.1,0-0.1,0-0.1c0,0,0-0.1,0.1-0.1c0,0,0.1,0,0.1,0.1C125.6,133.8,125.6,133.9,125.4,133.9
		L125.4,133.9L125.4,133.9z M125.5,133.8C125.5,133.8,125.5,133.8,125.5,133.8C125.5,133.8,125.5,133.8,125.5,133.8
		c0-0.1,0-0.1,0-0.1C125.5,133.7,125.5,133.7,125.5,133.8C125.5,133.8,125.5,133.8,125.5,133.8L125.5,133.8z" class="st1"/>
        <path d="M125.7,133.8C125.7,133.8,125.7,133.8,125.7,133.8c0.1,0,0.1,0,0.1,0.1c0,0,0,0.1-0.1,0.1c0,0-0.1,0-0.1,0
		C125.6,133.9,125.6,133.9,125.7,133.8c0,0.1,0,0.1,0.1,0.1C125.7,133.9,125.7,133.9,125.7,133.8
		C125.7,133.8,125.7,133.8,125.7,133.8C125.7,133.8,125.7,133.8,125.7,133.8L125.7,133.8l0.1-0.1l0,0L125.7,133.8L125.7,133.8
		L125.7,133.8z" class="st1"/>
        <path d="M194.6,52.2L194.6,52.2l-42.2,0v0h0l0,32.2c0,3.3,1.4,6.2,3.3,7l16.2,10.3c0.4,0.4,0.9,0.7,1.5,0.7
		c0.5,0,1-0.2,1.3-0.5l16.5-10.4c1.9-0.9,3.3-3.8,3.3-7L194.6,52.2L194.6,52.2L194.6,52.2z M193.4,84.8c-0.2,2.4-1,4.5-2.7,5.6
		l-15.9,10.1h-0.1c-0.3,0.3-0.8,0.4-1.2,0.4c-0.5,0-0.9-0.2-1.2-0.4l-15.9-10.1c-1.7-1.1-2.5-3.2-2.7-5.6V53.3h39.8V84.8L193.4,84.8
		z" class="st1"/>
        <path d="M179.2,99.1l0.5-0.2C179.5,98.9,179.3,99,179.2,99.1L179.2,99.1z" class="st1"/>
        <path d="M147.4,143.2l-4,0.5l0-0.3c0.8-0.1,1-0.2,0.9-0.5c0-0.3-0.5-1-0.7-1.3l-2.8,0.3c-0.3,0.8-0.4,1.2-0.4,1.4
		c0,0.4,0.6,0.4,1.1,0.3l0,0.3l-2.5,0.3l0-0.3c0.7-0.2,0.8-0.5,1.1-1.3l2.1-6l0.3,0l3.4,5.1c0.7,1,0.9,1.4,1.5,1.3L147.4,143.2
		L147.4,143.2z M143.4,141.2l-1.5-2.4l-0.9,2.6L143.4,141.2L143.4,141.2z" class="st1"/>
        <path d="M217.2,128.1c-0.7-1.9-2.2-3.2-4.1-3.8c-1.9-0.4-4-0.1-5.3,1.3c-2.2,1.8-0.7,4.7-0.6,7.1
		c0,0.5,0.1,0.9-0.4,1.1c-8.8-0.8-16.9-3-25.7-3.9c-2-0.3-4-0.3-5.9-0.7l-2.4-0.3c-7.6,0.2-15.1,0.7-22.2,2.5
		c-1.5,0.5-3.2,0.6-4.7,1.2c-1.1-0.2-2,0.6-3,0.3l-2,0.5c-0.2,0-0.4,0-0.7,0c-1-2.5,1.9-4,1-6.5c-0.8-1.4-2.4-2.7-4.2-2.5
		c-2.1-0.2-3.9,0.9-4.8,2.5c-1.4,3,0.4,6.2,0.9,9.2c-0.1,1,1,2.1,0,2.9c-1.9-1.3-4.5-2.1-6.8-1.4c-0.7,0.4-2.1-0.1-2.4,0.7
		c2.6,1.4,5.9,1.2,8.8,1.1c0.4-0.1,0.6-0.2,0.9,0.1c0.2,1.6-0.3,3.7,0.7,5.1c1.1,1.5,2.9,1.8,4.7,2c5.6-0.2,10.5-1.8,15.6-3.1
		c0.8-0.1,1.4-0.5,2.2-0.5c2.7-0.6,5.7-1.1,8.6-1.2c-1.3,1.6-2,3.5-2.5,5.5c-0.7,1.6,1.3,1.9,1.9,2.8c-1.9,0.5-3.2,1.8-5,2.6
		c-3.9-0.1-7.1,1.3-10.8,1.8c-0.1,0.8,1.3,0.5,1.4,1.3c-0.2,0.5-0.7,0.6-1.1,0.9c-0.1,0.4,0,0.4,0.4,0.5c0.4-0.4,1.1-0.1,1.5-0.5
		c1.2,0,2.2-0.4,3.4-0.4c1-0.4,2.2-0.5,3.1-1.2c1.3-0.4,2.1-1.2,3.3-1.6c1.8,0,3.4-0.6,5.1-0.7v0.4c-1.4,2.3-2.8,4.6-4.3,6.7
		c-0.2,0.4,0.1,0.9,0.4,1c0.8,0.2,1.7,0,2.4-0.4c1.3-2.2,2.4-4.3,3.4-6.5c0.4-2.1,1.9-3.2,3.4-4.6c0.2-0.1,0.6-0.5,0.8-0.1
		c-1.2,1.4-2,2.7-2.9,4.3c-0.5,1.7-0.6,3.9,0.9,5.3c0.7,0.6,1.8,0.4,2.8,0.5c2.4-1.2,5.4,0.7,7.2-1.6c1.1-0.2,1.3,1.1,1.9,1.7
		c1,0.3,2.1,1.3,3.1,0.6c-0.1-0.7-0.8-1.3-1.1-1.9c-0.7-1.3-1.6-2.3-2.3-3.5c-0.3-0.9-0.8-1.4-1-2.3c1.1,0.4,2.1,1.1,3.3,1.3
		c1,0.4,2.3,0.4,3.3,1c0.8,1,2,1.6,3,2.3c1.5,0.7,3.2,0.9,4.8,1.5c0.6,0.1,1.5,0.5,1.9,0c-0.2-0.3-0.5-0.5-0.9-0.7
		c-0.2-0.8,1.1-0.4,1.5-1c-0.1-0.3-0.4-0.4-0.7-0.5c-0.9-0.5-3-0.6-3.6-0.9c-0.7-0.1-1.4-0.4-2.1-0.7c-3.6,0-5.6-3.3-8.5-4.5
		c0.7-0.6,1.7-1.1,2.1-2c0.5-0.9,0.7-2.3,0.2-3.2c-0.5-1.9-3-1.6-4.4-2.7l0.2-0.2c2.4-0.1,4.4,0.4,6.5,0.9c5.8,0.8,11.2,3,17.2,3.1
		c3.3,0,7.5,0.2,9.1-3c0.3-1.9,0.7-3.8,1-5.7C215.5,134.2,217.5,131.4,217.2,128.1L217.2,128.1z M151.9,155.8L151,155
		c0.4-0.5,1.3-0.2,2-0.6c1.6-0.5,3.4-1.1,5.1-0.7C156.3,155.2,154,155.3,151.9,155.8L151.9,155.8z M189.6,154.9
		c1.4,0.7,4.4,1.3,6.5,1.5c-0.2,0.8-1.7,0.1-1.5,1.2c-1.9-0.7-4.1-1.1-5.4-2.6C189.3,155,189.4,154.8,189.6,154.9L189.6,154.9z
		 M132.9,129c0.2-1.1,0.4-2.3,1.4-3c1.5-0.8,3.5-0.6,4.8,0.2c0.4,0.2,0.7,0.6,1,1.2c0.3,1-0.2,2.1-0.9,2.7h-0.6c0-1,0-2,0.4-2.7
		c-0.1-0.7-0.7-0.8-1.1-1.1c-1-0.3-1.9,0.2-2.7,0.6c-0.6,0.7-1.1,1.6-0.8,2.7c0.4,0.7,0.1,1.6,0.3,2.3l-0.2,0.2
		C133.6,131.2,132.7,130.4,132.9,129L132.9,129z M135.7,130.7c0.9,0.7,2.2,0.4,3.3,0.5c0.2,0.7,0.2,1.5-0.3,2.1
		c-1-0.2-2.4-0.1-2.9-1.1C135.9,131.8,135.6,131.2,135.7,130.7L135.7,130.7z M135.5,128.7c0.2-0.5,0-1.2,0.7-1.3
		c0.4-0.1,1.1-0.1,1.1,0.4c-0.1,0.7-0.1,1.5-0.3,2.1C136.2,129.9,135.8,129.4,135.5,128.7L135.5,128.7z M163.9,148.2
		c-0.3-2.1,0.5-4,1.9-5.5c0.8-0.2,1.8-0.4,2.6,0.1c-1.6,0.4-3.6,0.8-3.9,2.8c0.1,0.8-0.2,1.2,0.2,1.9c0.7,1.2,2.2,0.7,3,1.6
		c0,0.3-0.2,0.7-0.5,0.7C166.1,149.3,164.9,149,163.9,148.2L163.9,148.2z M161.7,152.4c1.5-0.6,3-1.9,4.6-1.3
		C165.2,152,163.3,152.4,161.7,152.4L161.7,152.4z M167.5,153c-0.8,1.9-1.8,3.8-3,5.7c-0.1,0.3-0.6,0.4-1,0.4c0-0.9,0.8-1.5,1.2-2.3
		c1.3-1.6,1.6-3.4,3.1-5C168.2,152.3,167.5,152.5,167.5,153L167.5,153z M169,149.5v0.2h-0.1v-0.2v-0.1h0.2c-0.1,0-0.2,0-0.2,0.1H169
		L169,149.5z M168.4,147.9c-1-0.1-2-0.4-2.9-0.7c-0.6-0.6,0-1.3,0-2c0.8-1.3,3.3-2,4.4-0.8C169.8,145.7,169.3,146.9,168.4,147.9
		L168.4,147.9z M169.8,147.9c0.2-0.8,0.5-1.8,1-2.6C170.7,146.1,170.3,147.2,169.8,147.9L169.8,147.9z M170.4,142.9
		c-0.8-0.2-1.2-1.1-2.1-1.1c0.7-0.2,1.4-0.2,2.3-0.1C171,142.2,170.5,142.6,170.4,142.9L170.4,142.9z M171.2,144.7L171.2,144.7
		l-0.1-0.7h0.1V144.7L171.2,144.7z M171.2,147.5c-0.1-0.2,0.1-0.5,0.2-0.9c0.3-0.3,0.6,0.2,0.7,0.4
		C171.9,147.4,171.6,147.6,171.2,147.5L171.2,147.5z M172.1,143.8c0.3-0.9,0.4-1.6,0.9-2.3c0.6,0,1.1,0,1.6,0.2
		c0.1,1.2,1.6,2.9,0,3.9c-0.5,0.2-1.3,0.8-1.9,0.2C171.9,145.2,171.8,144.6,172.1,143.8L172.1,143.8z M176.5,142.1
		c-0.1-0.5,0.5-0.1,0.8-0.4l1.9,0.1C178.2,141.7,177,144,176.5,142.1L176.5,142.1z M179.6,142.9c-0.7,0.2-1.3,1.1-2,1.3
		C177.9,143.5,178.8,142.8,179.6,142.9L179.6,142.9z M177,146.6v0.2H177L177,146.6L177,146.6L177,146.6z M177.1,150.4
		c-0.1,0.1,0.1,0.3-0.1,0.4l-1.4-1.1C176.3,149.6,176.8,149.9,177.1,150.4L177.1,150.4z M175.5,148.5c0.1-0.1,0.4-0.1,0.5,0H175.5
		L175.5,148.5z M174.7,147.5c0.2-0.4,0.5-0.9,1-0.9c0,0.1,0.1,0.1,0.1,0.2C175.4,147.1,175.1,147.4,174.7,147.5L174.7,147.5z
		 M173.3,147.4H173l0.4-0.4C173.6,147.2,173.3,147.3,173.3,147.4L173.3,147.4z M173.5,149.7c0.8-0.9,1.5,0.5,1.8,1.2
		c0.9,1.3,3.3,2.6,2.4,4.4c-1.2,1-3,0.1-4.2,0.9c-0.7-0.1-1.8,0.1-2.2-0.5C171.9,153.6,172.5,151.4,173.5,149.7L173.5,149.7z
		 M171.8,150.9l0.3-0.5c-0.5,1.5-1.2,3-2,4.4C169.7,153.3,171.2,152.2,171.8,150.9L171.8,150.9z M174.4,158.2
		c-1.1,0.1-2.9,0.7-4-0.2c0.1-0.5-0.5-0.7-0.4-1.2c1-0.4,1.8,0.8,2.7-0.1c1.4,0.1,2.8-0.2,4.2,0.1c0.7,0.2,1.7-1.1,1.8,0.2
		C178.3,158.9,175.9,157.5,174.4,158.2L174.4,158.2z M177.9,149.4v-0.2h0.1v0.2H177.9L177.9,149.4z M178.3,153.2
		c0.1,0.6,0.7,0.9,0.3,1.4C178.5,154.4,178.1,153.8,178.3,153.2L178.3,153.2z M180,156.9l-0.3,0.1c-0.3-0.2-0.2-0.9-0.1-1.3
		C179.9,156,180.2,156.4,180,156.9L180,156.9z M183,158.3c-0.1,0.2-0.4,0.2-0.5,0.1c-1.8-2.3-2.7-4.8-3.8-7.3l0.2-0.1
		C180.4,153.4,181.6,156,183,158.3L183,158.3z M185.2,152.7c-0.1,0.1-0.1,0.2-0.1,0.2c-1.8,0.1-2.9-1-4.2-1.9l-0.1-0.3
		C182.5,150.9,183.8,151.9,185.2,152.7L185.2,152.7z M183.7,144.6c0.7,0.2,0.8,1,0.8,1.6c-0.1,1.3-0.8,2.5-2.1,3
		c-0.7,0.4-1.7,0.5-2.4,0.2c1.5-0.1,3-0.6,3.6-2.1L183.7,144.6L183.7,144.6z M182.3,144.4c0.3,0.9,0.8,1.6,0.5,2.7
		c-0.6,1.2-1.8,1.2-2.9,1.4c-0.5,0.1-1-0.1-1.4-0.4c0.1-0.2-0.1-0.4-0.2-0.6c0.2-0.8-1.4-1.6-0.3-2.3
		C179,144.3,181.3,142.2,182.3,144.4L182.3,144.4z M213.1,139.9c-0.5,0.6-0.1,1.6-0.7,2.1c0,1.1-0.9,1.6-1.7,2.1
		c-7.2,1.6-14.3-0.9-21.2-2.1c-9.7-2.1-21.1-2.7-31-0.5c-4.7,0.9-9.2,1.9-13.7,3.2c-2.8,0.4-5.8,0.8-8.5-0.1c-2.2-1-1.3-3.8-1.9-5.8
		c0.1-1.5-0.4-2.7-0.5-4.2c-0.2-0.5-0.3-1.1-0.2-1.6c0.9,0.1,1.8,0.8,2.8,1c5.1,1,9.6-0.7,14.3-1.5c4.5-1,9.2-1.8,14-2.1
		c5.4-0.1,11-0.4,16.2,0.5c1.7,0.1,3.1,0.5,4.8,0.6c3.4,0.4,6.5,1.3,10,1.6c0.5,0.2,1.2,0.2,1.8,0.3c5.4,0.9,11.6,2.4,16.8,0
		C214.3,135.8,213.4,137.8,213.1,139.9L213.1,139.9z M211.4,132.5c0.1,1-0.8,0.7-1.3,1.1h-1.5c-0.3-0.5-0.2-1.2-0.2-1.7
		C209.4,132.1,210.5,132.1,211.4,132.5L211.4,132.5z M210.7,131c0.7-0.7-0.2-4.5,1.7-2c0,0.5,0.1,1.2-0.4,1.6
		C211.7,130.8,211.2,131.3,210.7,131L210.7,131z M215.6,130.4c-0.5,1.1-1.4,1.9-2.6,2.1c0.1-1.5,1.4-2.5,0.9-4.1
		c-0.8-1.2-2.4-1.5-3.8-1.2c-0.5,0.4-0.3,1-0.5,1.5l-0.2,2c-1.2,0-1.3-1.1-1.6-1.9c0.1-1.3,0.6-2.6,1.9-3.2c1-0.5,2.5-0.4,3.5,0.1
		c0.8,0.2,1.7,0.5,2,1.3C216,127.7,215.8,129.3,215.6,130.4L215.6,130.4z" class="st1"/>
    </g>
    <g id="Layer_3"/>
    <g id="Layer_2"/>
</svg>
